<svg width="172" height="40" viewBox="0 0 172 40" fill="none" xmlns="http://www.w3.org/2000/svg">
<rect x="81.5" y="0.5" width="90" height="39" rx="4.5" stroke="#369CB7"/>
<path d="M36.2433 24H29.7433L28.5033 27H25.1833L31.4233 13H34.6233L40.8833 27H37.4833L36.2433 24ZM35.2233 21.54L33.0033 16.18L30.7833 21.54H35.2233ZM52.6158 19.72C53.4158 19.9733 54.0424 20.4 54.4958 21C54.9491 21.5867 55.1758 22.3133 55.1758 23.18C55.1758 24.4067 54.6958 25.3533 53.7358 26.02C52.7891 26.6733 51.4024 27 49.5758 27H42.3358V13H49.1758C50.8824 13 52.1891 13.3267 53.0958 13.98C54.0158 14.6333 54.4758 15.52 54.4758 16.64C54.4758 17.32 54.3091 17.9267 53.9758 18.46C53.6558 18.9933 53.2024 19.4133 52.6158 19.72ZM45.5558 15.44V18.74H48.7758C49.5758 18.74 50.1824 18.6 50.5958 18.32C51.0091 18.04 51.2158 17.6267 51.2158 17.08C51.2158 16.5333 51.0091 16.1267 50.5958 15.86C50.1824 15.58 49.5758 15.44 48.7758 15.44H45.5558ZM49.3358 24.56C50.1891 24.56 50.8291 24.42 51.2558 24.14C51.6958 23.86 51.9158 23.4267 51.9158 22.84C51.9158 21.68 51.0558 21.1 49.3358 21.1H45.5558V24.56H49.3358ZM64.3288 27.24C62.9021 27.24 61.6088 26.9333 60.4488 26.32C59.3021 25.6933 58.3954 24.8333 57.7288 23.74C57.0754 22.6333 56.7488 21.3867 56.7488 20C56.7488 18.6133 57.0754 17.3733 57.7288 16.28C58.3954 15.1733 59.3021 14.3133 60.4488 13.7C61.6088 13.0733 62.9088 12.76 64.3488 12.76C65.5621 12.76 66.6554 12.9733 67.6288 13.4C68.6154 13.8267 69.4421 14.44 70.1088 15.24L68.0288 17.16C67.0821 16.0667 65.9088 15.52 64.5088 15.52C63.6421 15.52 62.8688 15.7133 62.1888 16.1C61.5088 16.4733 60.9754 17 60.5888 17.68C60.2154 18.36 60.0288 19.1333 60.0288 20C60.0288 20.8667 60.2154 21.64 60.5888 22.32C60.9754 23 61.5088 23.5333 62.1888 23.92C62.8688 24.2933 63.6421 24.48 64.5088 24.48C65.9088 24.48 67.0821 23.9267 68.0288 22.82L70.1088 24.74C69.4421 25.5533 68.6154 26.1733 67.6288 26.6C66.6421 27.0267 65.5421 27.24 64.3288 27.24Z" fill="#2F2F2F"/>
<path d="M16.2875 12L3 27H20" stroke="#2F2F2F" stroke-width="2"/>
</svg>
