<svg width="172" height="40" viewBox="0 0 172 40" fill="none" xmlns="http://www.w3.org/2000/svg">
<rect x="81.5" y="0.5" width="90" height="39" rx="4.5" stroke="#369CB7"/>
<path d="M37.4009 19.72C38.2009 19.9733 38.8276 20.4 39.2809 21C39.7343 21.5867 39.9609 22.3133 39.9609 23.18C39.9609 24.4067 39.4809 25.3533 38.5209 26.02C37.5743 26.6733 36.1876 27 34.3609 27H27.1209V13H33.9609C35.6676 13 36.9743 13.3267 37.8809 13.98C38.8009 14.6333 39.2609 15.52 39.2609 16.64C39.2609 17.32 39.0943 17.9267 38.7609 18.46C38.4409 18.9933 37.9876 19.4133 37.4009 19.72ZM30.3409 15.44V18.74H33.5609C34.3609 18.74 34.9676 18.6 35.3809 18.32C35.7943 18.04 36.0009 17.6267 36.0009 17.08C36.0009 16.5333 35.7943 16.1267 35.3809 15.86C34.9676 15.58 34.3609 15.44 33.5609 15.44H30.3409ZM34.1209 24.56C34.9743 24.56 35.6143 24.42 36.0409 24.14C36.4809 23.86 36.7009 23.4267 36.7009 22.84C36.7009 21.68 35.8409 21.1 34.1209 21.1H30.3409V24.56H34.1209ZM51.6339 24H45.1339L43.8939 27H40.5739L46.8139 13H50.0139L56.2739 27H52.8739L51.6339 24ZM50.6139 21.54L48.3939 16.18L46.1739 21.54H50.6139ZM64.2311 27.24C62.8044 27.24 61.5111 26.9333 60.3511 26.32C59.2044 25.6933 58.2978 24.8333 57.6311 23.74C56.9778 22.6333 56.6511 21.3867 56.6511 20C56.6511 18.6133 56.9778 17.3733 57.6311 16.28C58.2978 15.1733 59.2044 14.3133 60.3511 13.7C61.5111 13.0733 62.8111 12.76 64.2511 12.76C65.4644 12.76 66.5578 12.9733 67.5311 13.4C68.5178 13.8267 69.3444 14.44 70.0111 15.24L67.9311 17.16C66.9844 16.0667 65.8111 15.52 64.4111 15.52C63.5444 15.52 62.7711 15.7133 62.0911 16.1C61.4111 16.4733 60.8778 17 60.4911 17.68C60.1178 18.36 59.9311 19.1333 59.9311 20C59.9311 20.8667 60.1178 21.64 60.4911 22.32C60.8778 23 61.4111 23.5333 62.0911 23.92C62.7711 24.2933 63.5444 24.48 64.4111 24.48C65.8111 24.48 66.9844 23.9267 67.9311 22.82L70.0111 24.74C69.3444 25.5533 68.5178 26.1733 67.5311 26.6C66.5444 27.0267 65.4444 27.24 64.2311 27.24Z" fill="#2F2F2F"/>
<path d="M16.2875 12L3 27H20" stroke="#2F2F2F" stroke-width="2"/>
</svg>
