<svg width="172" height="40" viewBox="0 0 172 40" fill="none" xmlns="http://www.w3.org/2000/svg">
<rect x="81.5" y="0.5" width="90" height="39" rx="4.5" stroke="#369CB7"/>
<path d="M37.94 19.72C38.74 19.9733 39.3667 20.4 39.82 21C40.2733 21.5867 40.5 22.3133 40.5 23.18C40.5 24.4067 40.02 25.3533 39.06 26.02C38.1133 26.6733 36.7267 27 34.9 27H27.66V13H34.5C36.2067 13 37.5133 13.3267 38.42 13.98C39.34 14.6333 39.8 15.52 39.8 16.64C39.8 17.32 39.6333 17.9267 39.3 18.46C38.98 18.9933 38.5267 19.4133 37.94 19.72ZM30.88 15.44V18.74H34.1C34.9 18.74 35.5067 18.6 35.92 18.32C36.3333 18.04 36.54 17.6267 36.54 17.08C36.54 16.5333 36.3333 16.1267 35.92 15.86C35.5067 15.58 34.9 15.44 34.1 15.44H30.88ZM34.66 24.56C35.5133 24.56 36.1533 24.42 36.58 24.14C37.02 23.86 37.24 23.4267 37.24 22.84C37.24 21.68 36.38 21.1 34.66 21.1H30.88V24.56H34.66ZM49.653 27.24C48.2263 27.24 46.933 26.9333 45.773 26.32C44.6263 25.6933 43.7196 24.8333 43.053 23.74C42.3996 22.6333 42.073 21.3867 42.073 20C42.073 18.6133 42.3996 17.3733 43.053 16.28C43.7196 15.1733 44.6263 14.3133 45.773 13.7C46.933 13.0733 48.233 12.76 49.673 12.76C50.8863 12.76 51.9796 12.9733 52.953 13.4C53.9396 13.8267 54.7663 14.44 55.433 15.24L53.353 17.16C52.4063 16.0667 51.233 15.52 49.833 15.52C48.9663 15.52 48.193 15.7133 47.513 16.1C46.833 16.4733 46.2996 17 45.913 17.68C45.5396 18.36 45.353 19.1333 45.353 20C45.353 20.8667 45.5396 21.64 45.913 22.32C46.2996 23 46.833 23.5333 47.513 23.92C48.193 24.2933 48.9663 24.48 49.833 24.48C51.233 24.48 52.4063 23.9267 53.353 22.82L55.433 24.74C54.7663 25.5533 53.9396 26.1733 52.953 26.6C51.9663 27.0267 50.8663 27.24 49.653 27.24ZM66.5675 24H60.0675L58.8275 27H55.5075L61.7475 13H64.9475L71.2075 27H67.8075L66.5675 24ZM65.5475 21.54L63.3275 16.18L61.1075 21.54H65.5475Z" fill="#2F2F2F"/>
<path d="M16.2875 12L3 27H20" stroke="#2F2F2F" stroke-width="2"/>
</svg>
