<svg width="201" height="106" xmlns="http://www.w3.org/2000/svg">
 <defs>
  <clipPath id="clip0_17_16">
   <rect id="svg_1" x="185.692001" y="90.692299" fill="white" height="7.61539" width="7.61539"/>
  </clipPath>
  <clipPath id="clip1_17_16">
   <rect id="svg_2" x="8.69238" y="90.692299" fill="white" height="7.61539" width="7.61539"/>
  </clipPath>
  <clipPath id="clip2_17_16">
   <rect id="svg_3" x="96" y="95.096199" transform="rotate(-45 95.99999999999999,95.09619903564452) " fill="white" height="7.20711" width="7.20711"/>
  </clipPath>
 </defs>
 <g>
  <title>background</title>
  <rect fill="none" id="canvas_background" height="28.500106" width="52.250201" y="-1" x="-1"/>
 </g>
 <g>
  <title>Layer 1</title>
  <path id="svg_4" fill="#239AD6" d="m3.74463,105.14c-1.50417,-0.001 -2.746505,-1.218 -2.74461,-2.751l0.02171,-17.5769c0.00185,-1.5042 1.2183,-2.7465 2.75139,-2.7446l13.68218,0.0169c0.1869,-10.7894 2.3982,-21.2291 6.6047,-31.1167c4.2066,-9.9455 10.2343,-18.8474 17.9092,-26.5034c7.675,-7.656 16.5917,-13.6617 26.5476,-17.84371c10.3031,-4.32624 21.24,-6.511135 32.4922,-6.497239c11.252,0.013896 22.184,2.225799 32.476,6.606399c9.946,4.20665 18.848,10.23425 26.504,17.90925c7.656,7.6749 13.661,16.5917 17.843,26.5475c4.154,9.8691 6.368,20.3431 6.528,31.1329l13.682,0.0169c1.505,0.0018 2.747,1.2183 2.745,2.7514l-0.022,17.5773c-0.002,1.504 -1.218,2.746 -2.751,2.744l-194.26941,-0.24l0.00004,-0.029zm150.50337,-22.8578c-0.688,-28.7248 -24.436,-52.0109 -53.276,-52.0465c-28.8396,-0.0356 -52.6458,23.1918 -53.4044,51.9148l106.6804,0.1317z"/>
  <path id="svg_5" fill="#7CCED6" d="m3.74395,104.888c-1.12813,-0.001 -2.05263,-0.928 -2.05124,-2.056l0.02222,-17.9912c0.00139,-1.1281 0.92818,-2.0526 2.05631,-2.0512l14.37636,0.0178c0.1003,-10.9341 2.3118,-21.5184 6.5474,-31.5217c4.1776,-9.8588 10.1473,-18.7029 17.7643,-26.2722c7.6171,-7.5982 16.4759,-13.5461 26.316,-17.69935c10.2164,-4.35527 21.0664,-6.511353 32.2317,-6.497564c11.166,0.013789 22.011,2.225584 32.216,6.548224c9.859,4.17759 18.703,10.14729 26.272,17.76429c7.599,7.6171 13.547,16.4759 17.7,26.316c4.211,10.0137 6.396,20.6324 6.469,31.5377l14.377,0.0178c1.128,0.0014 2.052,0.9282 2.051,2.0563l-0.022,17.9911c-0.002,1.128 -0.929,2.053 -2.057,2.051l-194.26902,-0.24l-0.00003,0.029zm151.19605,-21.9406c-0.339,-29.4475 -24.463,-53.3994 -53.968,-53.4359c-29.505,-0.0364 -53.717,23.8558 -54.1005,53.3024l108.0685,0.1335z"/>
  <path id="svg_6" fill="#46A2DA" d="m183.259,83.6775c-0.144,-0.0002 -0.26,-0.1161 -0.26,-0.2607c-0.015,-10.992 -2.171,-21.6396 -6.411,-31.6823c-4.124,-9.7822 -10.044,-18.5542 -17.555,-26.1133c-7.512,-7.5301 -16.298,-13.4709 -26.07,-17.61944c-10.119,-4.2936 -20.877,-6.47637 -31.956,-6.49005c-11.0784,-0.01368 -21.8417,2.14251 -31.9712,6.4111c-9.7822,4.12439 -18.5542,10.04349 -26.1133,17.55499c-7.5301,7.5116 -13.4709,16.2979 -17.6194,26.0699c-4.2936,10.1189 -6.4763,20.8479 -6.49,31.9267l-15.04172,-0.0186c-0.75209,-0.0009 -1.36029,0.6058 -1.36122,1.3579l-0.02171,17.5773c-0.00093,0.752 0.60578,1.36 1.35786,1.361l194.26969,0.24c0.752,0.001 1.36,-0.606 1.361,-1.358l0.022,-17.5771c0.001,-0.752 -0.606,-1.3602 -1.358,-1.3612l-14.782,-0.0182zm-137.0816,-0.1693c0.0373,-30.1702 24.6261,-54.6983 54.7966,-54.6611c30.17,0.0373 54.698,24.6261 54.661,54.7963l-109.4576,-0.1352z" opacity="0.4"/>
  <circle id="svg_7" fill="#7CCED6" r="5.5" cy="94.5" cx="189.5" opacity="0.8"/>
  <g id="svg_8" clip-path="url(#clip0_17_16)">
   <path id="svg_9" fill="white" d="m193.037,91.7428c-0.163,-0.0149 -0.308,0.1057 -0.323,0.2693l-0.039,0.4324c-0.669,-1.0502 -1.83,-1.7522 -3.175,-1.7522c-1.447,0 -2.722,0.8258 -3.355,2.0653c-0.075,0.1463 -0.017,0.3255 0.13,0.4002c0.146,0.0748 0.325,0.0167 0.4,-0.1296c0.535,-1.049 1.611,-1.7409 2.825,-1.7409c1.106,0 2.105,0.5761 2.677,1.4785l-0.425,-0.3029c-0.133,-0.0955 -0.319,-0.0645 -0.415,0.0692c-0.095,0.1337 -0.064,0.3195 0.07,0.415l1.286,0.9186c0.188,0.1344 0.448,0.0113 0.469,-0.2151l0.144,-1.5845c0.015,-0.1636 -0.105,-0.3083 -0.269,-0.3233z"/>
   <path id="svg_10" fill="white" d="m192.726,95.8422c-0.147,-0.0747 -0.326,-0.0167 -0.401,0.1296c-0.535,1.049 -1.611,1.741 -2.825,1.741c-1.106,0 -2.105,-0.5761 -2.677,-1.4786l0.425,0.3029c0.133,0.0955 0.319,0.0645 0.415,-0.0692c0.095,-0.1337 0.064,-0.3194 -0.07,-0.4149l-1.286,-0.9186c-0.186,-0.1331 -0.448,-0.0137 -0.469,0.215l-0.144,1.5845c-0.015,0.1636 0.105,0.3084 0.269,0.3233c0.164,0.0149 0.308,-0.1058 0.323,-0.2693l0.04,-0.4323c0.668,1.0502 1.829,1.7521 3.174,1.7521c1.447,0 2.722,-0.8258 3.355,-2.0653c0.075,-0.1463 0.017,-0.3255 -0.129,-0.4002z"/>
  </g>
  <circle id="svg_11" fill="#38a2c4" r="5.5" cy="94.5" cx="12.5" opacity="0.8"/>
  <g id="svg_12" clip-path="url(#clip1_17_16)">
   <path id="svg_13" fill="white" d="m16.0372,91.7428c-0.1636,-0.0149 -0.3083,0.1057 -0.3232,0.2693l-0.0395,0.4324c-0.6687,-1.0502 -1.8295,-1.7522 -3.1745,-1.7522c-1.4469,0 -2.72208,0.8258 -3.35508,2.0653c-0.07473,0.1463 -0.01669,0.3255 0.12962,0.4002c0.14635,0.0748 0.3255,0.0167 0.40023,-0.1296c0.53573,-1.049 1.61153,-1.7409 2.82523,-1.7409c1.1063,0 2.1046,0.5761 2.6766,1.4785l-0.4242,-0.3029c-0.1337,-0.0955 -0.3195,-0.0645 -0.4149,0.0692c-0.0955,0.1337 -0.0645,0.3195 0.0691,0.415l1.2863,0.9186c0.1885,0.1344 0.4485,0.0113 0.4691,-0.2151l0.1444,-1.5845c0.015,-0.1636 -0.1056,-0.3083 -0.2692,-0.3233z"/>
   <path id="svg_14" fill="white" d="m15.7255,95.8422c-0.1463,-0.0747 -0.3255,-0.0167 -0.4002,0.1296c-0.5357,1.049 -1.6115,1.741 -2.8252,1.741c-1.1063,0 -2.1047,-0.5761 -2.67663,-1.4786l0.42413,0.3029c0.1337,0.0955 0.3195,0.0645 0.415,-0.0692c0.0955,-0.1337 0.0645,-0.3194 -0.0692,-0.4149l-1.2862,-0.9186c-0.1862,-0.1331 -0.44831,-0.0137 -0.46913,0.215l-0.14444,1.5845c-0.01492,0.1636 0.10563,0.3084 0.26923,0.3233c0.16382,0.0149 0.30835,-0.1058 0.32325,-0.2693l0.03942,-0.4323c0.6687,1.0502 1.82947,1.7521 3.17457,1.7521c1.4469,0 2.722,-0.8258 3.355,-2.0653c0.0748,-0.1463 0.0167,-0.3255 -0.1296,-0.4002z"/>
  </g>
  <circle id="svg_15" fill="#7CCED6" r="6" cy="95" cx="101" opacity="0.8"/>
  <g id="svg_16" clip-path="url(#clip2_17_16)">
   <path id="svg_17" fill="white" d="m99.822,92.5481l0.977,0l-0.004,1.2231l0.603,0l-0.005,-1.2231l0.977,0l-1.274,-1.2741l-1.274,1.2741zm-1.274,3.8221l0,-0.9767l1.2231,0.0042l0,-0.603l-1.2231,0.0042l0,-0.9768l-1.2741,1.2741l1.2741,1.274zm3.822,1.2741l-0.977,0l0.005,-1.2231l-0.603,0l0.004,1.2231l-0.977,0l1.274,1.274l1.274,-1.274zm1.274,-3.8222l0,0.9768l-1.223,-0.0042l0,0.603l1.223,-0.0042l0,0.9767l1.274,-1.274l-1.274,-1.2741z"/>
  </g>
  <path id="svg_18" fill="white" d="m20.5279,76.2488l-0.0333,0.3746l5.4456,0.4832l0.0333,-0.3746l-5.4456,-0.4832z"/>
  <path id="svg_19" fill="white" d="m23.0094,62.4186l-0.0978,0.3631l5.2788,1.4213l0.0978,-0.363l-5.2788,-1.4214z"/>
  <path id="svg_20" fill="white" d="m27.8605,49.201l-0.1593,0.3406l4.9518,2.3165l0.1594,-0.3406l-4.9519,-2.3165z"/>
  <path id="svg_21" fill="white" d="m34.9431,37.0388l-0.216,0.3078l4.4746,3.1414l0.2161,-0.3078l-4.4747,-3.1414z"/>
  <path id="svg_22" fill="white" d="m44.0216,26.2941l-0.2662,0.2656l3.8609,3.8705l0.2662,-0.2656l-3.8609,-3.8705z"/>
  <path id="svg_23" fill="white" d="m54.8391,17.2883l-0.3083,0.2153l3.1303,4.4824l0.3083,-0.2153l-3.1303,-4.4824z"/>
  <path id="svg_24" fill="white" d="m67.0466,10.2968l-0.341,0.1585l2.3042,4.9576l0.341,-0.1585l-2.3042,-4.9576z"/>
  <path id="svg_25" fill="white" d="m80.294,5.52068l-0.3633,0.09687l1.4083,5.28225l0.3633,-0.0968l-1.4083,-5.28232z"/>
  <path id="svg_26" fill="white" d="m94.1725,3.14451l-0.3746,0.03231l0.4697,5.44677l0.3746,-0.03231l-0.4697,-5.44677z"/>
  <path id="svg_27" fill="white" d="m107.85,3.16896l-0.484,5.4456l0.375,0.03329l0.484,-5.44561l-0.375,-0.03328z"/>
  <path id="svg_28" fill="white" d="m121.727,5.59188l-1.423,5.27882l0.363,0.0978l1.423,-5.27874l-0.363,-0.09788z"/>
  <path id="svg_29" fill="white" d="m134.935,10.3752l-2.318,4.9513l0.341,0.1594l2.318,-4.9513l-0.341,-0.1594z"/>
  <path id="svg_30" fill="white" d="m147.133,17.4022l-3.142,4.4735l0.307,0.2162l3.143,-4.4736l-0.308,-0.2161z"/>
  <path id="svg_31" fill="white" d="m157.915,26.4289l-3.871,3.861l0.266,0.2662l3.87,-3.8609l-0.265,-0.2663z"/>
  <path id="svg_32" fill="white" d="m166.976,37.193l-4.482,3.1309l0.215,0.3082l4.482,-3.1308l-0.215,-0.3083z"/>
  <path id="svg_33" fill="white" d="m174.029,49.3846l-4.957,2.3059l0.159,0.341l4.957,-2.3059l-0.159,-0.341z"/>
  <path id="svg_34" fill="white" d="m178.844,62.6076l-5.282,1.41l0.097,0.3633l5.282,-1.41l-0.097,-0.3633z"/>
  <path id="svg_35" fill="white" d="m181.308,76.467l-5.447,0.4704l0.032,0.3747l5.447,-0.4705l-0.032,-0.3746z"/>
  <path id="svg_36" fill="white" d="m26.9998,83.2243l-6.8265,-0.0084l-0.0006,0.5496l6.8264,0.0084l0.0007,-0.5496z"/>
  <path id="svg_37" fill="white" d="m21.4799,69.1876l-0.0961,0.5411l6.7212,1.1941l0.0962,-0.5412l-6.7213,-1.194z"/>
  <path id="svg_38" fill="white" d="m25.1783,55.6243l-0.1886,0.5163l6.412,2.3425l0.1886,-0.5162l-6.412,-2.3426z"/>
  <path id="svg_39" fill="white" d="m31.188,42.9018l-0.2754,0.4756l5.9075,3.4205l0.2754,-0.4756l-5.9075,-3.4205z"/>
  <path id="svg_40" fill="white" d="m39.2976,31.4101l-0.3538,0.4205l5.2237,4.3945l0.3538,-0.4205l-5.2237,-4.3945z"/>
  <path id="svg_41" fill="white" d="m49.312,21.4998l-0.4214,0.3527l4.3816,5.2345l0.4214,-0.3527l-4.3816,-5.2345z"/>
  <path id="svg_42" fill="white" d="m60.865,13.4986l-0.4763,0.2742l3.4059,5.9159l0.4763,-0.2742l-3.4059,-5.9159z"/>
  <path id="svg_43" fill="white" d="m73.6392,7.612l-0.5166,0.18732l2.3267,6.41768l0.5167,-0.1873l-2.3268,-6.4177z"/>
  <path id="svg_44" fill="white" d="m87.2435,4.01244l-0.5414,0.0948l1.1775,6.72416l0.5414,-0.0948l-1.1775,-6.72416z"/>
  <path id="svg_45" fill="white" d="m101.266,2.87177l-0.549,-0.00068l-0.009,6.82647l0.55,0.00068l0.008,-6.82647z"/>
  <path id="svg_46" fill="white" d="m114.751,4.05769l-1.195,6.72121l0.541,0.0962l1.195,-6.72122l-0.541,-0.09619z"/>
  <path id="svg_47" fill="white" d="m128.359,7.6796l-2.342,6.412l0.516,0.1885l2.342,-6.41196l-0.516,-0.18854z"/>
  <path id="svg_48" fill="white" d="m141.093,13.5809l-3.42,5.9082l0.476,0.2754l3.42,-5.9082l-0.476,-0.2754z"/>
  <path id="svg_49" fill="white" d="m152.644,21.6527l-4.394,5.225l0.421,0.3537l4.393,-5.225l-0.42,-0.3537z"/>
  <path id="svg_50" fill="white" d="m162.626,31.5722l-5.236,4.3803l0.353,0.4215l5.236,-4.3802l-0.353,-0.4216z"/>
  <path id="svg_51" fill="white" d="m170.721,43.0866l-5.916,3.4052l0.274,0.4764l5.916,-3.4053l-0.274,-0.4763z"/>
  <path id="svg_52" fill="white" d="m176.685,55.8204l-6.418,2.3261l0.187,0.5167l6.418,-2.3261l-0.187,-0.5167z"/>
  <path id="svg_53" fill="white" d="m180.347,69.4118l-6.724,1.1782l0.095,0.5413l6.724,-1.1781l-0.095,-0.5414z"/>
  <path id="svg_54" fill="white" d="m181.611,83.4152l-6.826,-0.0084l-0.001,0.5496l6.826,0.0084l0.001,-0.5496z"/>
  <path id="svg_55" fill="white" d="m22.9208,83.335l-2.7479,-0.0034l-0.0004,0.2603l2.748,0.0034l0.0003,-0.2603z"/>
  <path id="svg_56" fill="white" d="m20.1943,81.9568l-0.0048,0.2603l2.7473,0.0513l0.0048,-0.2603l-2.7473,-0.0513z"/>
  <path id="svg_57" fill="white" d="m20.237,80.5255l-0.0095,0.2602l2.7462,0.0994l0.0094,-0.2602l-2.7461,-0.0994z"/>
  <path id="svg_58" fill="white" d="m20.2942,79.1217l-0.0139,0.26l2.7439,0.1471l0.0139,-0.26l-2.7439,-0.1471z"/>
  <path id="svg_59" fill="white" d="m20.3832,77.7113l-0.0185,0.2597l2.7412,0.195l0.0184,-0.2597l-2.7411,-0.195z"/>
  <path id="svg_60" fill="white" d="m20.5147,76.3313l-0.023,0.2593l2.7372,0.2429l0.023,-0.2593l-2.7372,-0.2429z"/>
  <path id="svg_61" fill="white" d="m20.6418,74.9134l-0.0275,0.2588l2.7324,0.2906l0.0276,-0.2589l-2.7325,-0.2905z"/>
  <path id="svg_62" fill="white" d="m20.8201,73.5337l-0.032,0.2583l2.7269,0.3383l0.0321,-0.2583l-2.727,-0.3383z"/>
  <path id="svg_63" fill="white" d="m21.0014,72.1136l-0.0366,0.2578l2.7209,0.3859l0.0365,-0.2578l-2.7208,-0.3859z"/>
  <path id="svg_64" fill="white" d="m21.2222,70.7251l-0.041,0.2571l2.7136,0.4334l0.041,-0.2571l-2.7136,-0.4334z"/>
  <path id="svg_65" fill="white" d="m21.4357,69.3307l-0.0456,0.2563l2.7056,0.4807l0.0456,-0.2563l-2.7056,-0.4807z"/>
  <path id="svg_66" fill="white" d="m21.6921,67.9644l-0.05,0.2554l2.6967,0.5277l0.05,-0.2555l-2.6967,-0.5276z"/>
  <path id="svg_67" fill="white" d="m21.9753,66.5692l-0.0544,0.2546l2.6871,0.5746l0.0544,-0.2546l-2.6871,-0.5746z"/>
  <path id="svg_68" fill="white" d="m22.3094,65.2111l-0.0589,0.2536l2.6768,0.6216l0.0589,-0.2536l-2.6768,-0.6216z"/>
  <path id="svg_69" fill="white" d="m22.6248,63.8419l-0.0633,0.2525l2.6655,0.668l0.0633,-0.2525l-2.6655,-0.668z"/>
  <path id="svg_70" fill="white" d="m22.9896,62.4822l-0.0677,0.2514l2.6533,0.7144l0.0677,-0.2513l-2.6533,-0.7145z"/>
  <path id="svg_71" fill="white" d="m23.3787,61.1194l-0.0721,0.2502l2.6407,0.7606l0.0721,-0.2502l-2.6407,-0.7606z"/>
  <path id="svg_72" fill="white" d="m23.7825,59.7634l-0.0764,0.2489l2.6268,0.8067l0.0764,-0.2488l-2.6268,-0.8068z"/>
  <path id="svg_73" fill="white" d="m24.1984,58.4243l-0.0807,0.2475l2.6125,0.8523l0.0807,-0.2475l-2.6125,-0.8523z"/>
  <path id="svg_74" fill="white" d="m24.6559,57.1019l-0.0851,0.246l2.5971,0.8979l0.085,-0.246l-2.597,-0.8979z"/>
  <path id="svg_75" fill="white" d="m25.1333,55.7729l-0.0894,0.2446l2.5811,0.9429l0.0894,-0.2445l-2.5811,-0.943z"/>
  <path id="svg_76" fill="white" d="m25.6307,54.4478l-0.0936,0.2429l2.5643,0.9881l0.0936,-0.243l-2.5643,-0.988z"/>
  <path id="svg_77" fill="white" d="m26.1418,53.1192l-0.0979,0.2413l2.5467,1.0325l0.0978,-0.2413l-2.5466,-1.0325z"/>
  <path id="svg_78" fill="white" d="m26.686,51.832l-0.102,0.2395l2.5281,1.0768l0.102,-0.2395l-2.5281,-1.0768z"/>
  <path id="svg_79" fill="white" d="m27.2453,50.5436l-0.1061,0.2377l2.5088,1.1207l0.1062,-0.2377l-2.5089,-1.1207z"/>
  <path id="svg_80" fill="white" d="m27.8261,49.2544l-0.1103,0.2358l2.489,1.1643l0.1104,-0.2358l-2.4891,-1.1643z"/>
  <path id="svg_81" fill="white" d="m28.4494,47.9792l-0.1144,0.2338l2.4683,1.2078l0.1144,-0.2339l-2.4683,-1.2077z"/>
  <path id="svg_82" fill="white" d="m29.0706,46.7243l-0.1185,0.2318l2.4469,1.2506l0.1185,-0.2318l-2.4469,-1.2506z"/>
  <path id="svg_83" fill="white" d="m29.7338,45.4878l-0.1225,0.2297l2.4246,1.2931l0.1225,-0.2297l-2.4246,-1.2931z"/>
  <path id="svg_84" fill="white" d="m30.4141,44.2468l-0.1265,0.2276l2.4017,1.3351l0.1265,-0.2275l-2.4017,-1.3352z"/>
  <path id="svg_85" fill="white" d="m31.0943,43.0327l-0.1304,0.2253l2.378,1.3769l0.1304,-0.2253l-2.378,-1.3769z"/>
  <path id="svg_86" fill="white" d="m31.8306,41.8033l-0.1343,0.223l2.3538,1.4181l0.1343,-0.223l-2.3538,-1.4181z"/>
  <path id="svg_87" fill="white" d="m32.5674,40.6031l-0.1382,0.2206l2.3287,1.459l0.1383,-0.2206l-2.3288,-1.459z"/>
  <path id="svg_88" fill="white" d="m33.3237,39.4411l-0.1421,0.2181l2.3029,1.4994l0.142,-0.2181l-2.3028,-1.4994z"/>
  <path id="svg_89" fill="white" d="m34.1107,38.2566l-0.1459,0.2156l2.2762,1.5395l0.1458,-0.2156l-2.2761,-1.5395z"/>
  <path id="svg_90" fill="white" d="m34.9011,37.09l-0.1496,0.2131l2.2491,1.579l0.1496,-0.2131l-2.2491,-1.579z"/>
  <path id="svg_91" fill="white" d="m35.7221,35.9409l-0.1533,0.2104l2.2211,1.618l0.1533,-0.2104l-2.2211,-1.618z"/>
  <path id="svg_92" fill="white" d="m36.5646,34.8294l-0.1569,0.2077l2.1925,1.6564l0.1569,-0.2077l-2.1925,-1.6564z"/>
  <path id="svg_93" fill="white" d="m37.4217,33.7171l-0.1605,0.205l2.1633,1.6943l0.1605,-0.205l-2.1633,-1.6943z"/>
  <path id="svg_94" fill="white" d="m38.2969,32.6055l-0.1641,0.2021l2.1333,1.7321l0.1641,-0.2021l-2.1333,-1.7321z"/>
  <path id="svg_95" fill="white" d="m39.2247,31.5255l-0.1676,0.1992l2.1028,1.7689l0.1676,-0.1992l-2.1028,-1.7689z"/>
  <path id="svg_96" fill="white" d="m40.1305,30.4474l-0.171,0.1963l2.0716,1.8055l0.1711,-0.1963l-2.0717,-1.8055z"/>
  <path id="svg_97" fill="white" d="m41.0494,29.4042l-0.1744,0.1933l2.04,1.8411l0.1744,-0.1932l-2.04,-1.8412z"/>
  <path id="svg_98" fill="white" d="m42.025,28.3624l-0.1778,0.1902l2.0075,1.8766l0.1778,-0.1902l-2.0075,-1.8766z"/>
  <path id="svg_99" fill="white" d="m42.9896,27.3339l-0.181,0.187l1.9745,1.9112l0.1811,-0.1871l-1.9746,-1.9111z"/>
  <path id="svg_100" fill="white" d="m43.9734,26.3494l-0.1843,0.1838l1.9406,1.9455l0.1843,-0.1839l-1.9406,-1.9454z"/>
  <path id="svg_101" fill="white" d="m44.9893,25.3819l-0.1875,0.1806l1.9062,1.9792l0.1875,-0.1806l-1.9062,-1.9792z"/>
  <path id="svg_102" fill="white" d="m46.0188,24.4041l-0.1907,0.1773l1.8716,2.0122l0.1907,-0.1773l-1.8716,-2.0122z"/>
  <path id="svg_103" fill="white" d="m47.0628,23.4308l-0.1937,0.174l1.8362,2.0445l0.1937,-0.1739l-1.8362,-2.0446z"/>
  <path id="svg_104" fill="white" d="m48.0951,22.5072l-0.1967,0.1705l1.8004,2.0761l0.1967,-0.1705l-1.8004,-2.0761z"/>
  <path id="svg_105" fill="white" d="m49.182,21.5864l-0.1996,0.1671l1.7638,2.1071l0.1996,-0.167l-1.7638,-2.1072z"/>
  <path id="svg_106" fill="white" d="m50.2841,20.7017l-0.2026,0.1636l1.727,2.1376l0.2025,-0.1636l-1.7269,-2.1376z"/>
  <path id="svg_107" fill="white" d="m51.3723,19.8361l-0.2053,0.1601l1.689,2.1674l0.2053,-0.16l-1.689,-2.1675z"/>
  <path id="svg_108" fill="white" d="m52.4957,18.9839l-0.2081,0.1564l1.651,2.1966l0.2081,-0.1564l-1.651,-2.1966z"/>
  <path id="svg_109" fill="white" d="m53.6517,18.1506l-0.2108,0.1527l1.6125,2.2251l0.2108,-0.1527l-1.6125,-2.2251z"/>
  <path id="svg_110" fill="white" d="m54.8018,17.3298l-0.2134,0.1491l1.5734,2.253l0.2135,-0.149l-1.5735,-2.2531z"/>
  <path id="svg_111" fill="white" d="m55.9509,16.5455l-0.216,0.1454l1.5338,2.2799l0.216,-0.1453l-1.5338,-2.28z"/>
  <path id="svg_112" fill="white" d="m57.1228,15.7584l-0.2185,0.1415l1.4937,2.3066l0.2185,-0.1416l-1.4937,-2.3065z"/>
  <path id="svg_113" fill="white" d="m58.302,15.0028l-0.2209,0.1377l1.4532,2.3323l0.221,-0.1376l-1.4533,-2.3324z"/>
  <path id="svg_114" fill="white" d="m59.509,14.2703l-0.2234,0.1338l1.4123,2.3573l0.2233,-0.1338l-1.4122,-2.3573z"/>
  <path id="svg_115" fill="white" d="m60.7197,13.5664l-0.2256,0.1299l1.3711,2.3814l0.2256,-0.1299l-1.3711,-2.3814z"/>
  <path id="svg_116" fill="white" d="m61.9642,12.8859l-0.2279,0.1259l1.3293,2.405l0.2278,-0.1259l-1.3292,-2.405z"/>
  <path id="svg_117" fill="white" d="m63.1983,12.2124l-0.23,0.122l1.2871,2.4277l0.23,-0.1219l-1.2871,-2.4278z"/>
  <path id="svg_118" fill="white" d="m64.4675,11.563l-0.2321,0.1179l1.2445,2.45l0.2321,-0.1179l-1.2445,-2.45z"/>
  <path id="svg_119" fill="white" d="m65.7263,10.9172l-0.2341,0.1139l1.2016,2.4713l0.2342,-0.1138l-1.2017,-2.4714z"/>
  <path id="svg_120" fill="white" d="m67.0002,10.336l-0.236,0.1097l1.1582,2.4919l0.236,-0.1098l-1.1582,-2.4918z"/>
  <path id="svg_121" fill="white" d="m68.2643,9.76069l-0.2379,0.10558l1.1145,2.51163l0.2379,-0.1056l-1.1145,-2.51161z"/>
  <path id="svg_122" fill="white" d="m69.564,9.20095l-0.2398,0.10142l1.0705,2.53083l0.2398,-0.1014l-1.0705,-2.53085z"/>
  <path id="svg_123" fill="white" d="m70.8558,8.65235l-0.2415,0.09722l1.0262,2.54913l0.2415,-0.0972l-1.0262,-2.54915z"/>
  <path id="svg_124" fill="white" d="m72.1865,8.14638l-0.2431,0.093l0.9817,2.56672l0.2431,-0.093l-0.9817,-2.56672z"/>
  <path id="svg_125" fill="white" d="m73.5074,7.65108l-0.2447,0.08873l0.9366,2.58339l0.2447,-0.0887l-0.9366,-2.58342z"/>
  <path id="svg_126" fill="white" d="m74.8317,7.18068l-0.2463,0.08446l0.8916,2.59928l0.2462,-0.08446l-0.8915,-2.59928z"/>
  <path id="svg_127" fill="white" d="m76.1637,6.75037l-0.2477,0.08014l0.8459,2.61461l0.2477,-0.08013l-0.8459,-2.61462z"/>
  <path id="svg_128" fill="white" d="m77.5088,6.3045l-0.249,0.07581l0.8002,2.62885l0.2491,-0.07581l-0.8003,-2.62885z"/>
  <path id="svg_129" fill="white" d="m78.8714,5.93027l-0.2503,0.07144l0.7541,2.64253l0.2503,-0.07144l-0.7541,-2.64253z"/>
  <path id="svg_130" fill="white" d="m80.2193,5.55165l-0.2515,0.06706l0.7079,2.65512l0.2515,-0.06707l-0.7079,-2.65511z"/>
  <path id="svg_131" fill="white" d="m81.5769,5.20595l-0.2527,0.06267l0.6615,2.66715l0.2526,-0.06267l-0.6614,-2.66715z"/>
  <path id="svg_132" fill="white" d="m82.9642,4.87869l-0.2538,0.05826l0.615,2.67836l0.2538,-0.05826l-0.615,-2.67836z"/>
  <path id="svg_133" fill="white" d="m84.3431,4.59164l-0.2547,0.05381l0.568,2.68847l0.2547,-0.05381l-0.568,-2.68847z"/>
  <path id="svg_134" fill="white" d="m85.7253,4.298l-0.2556,0.04935l0.521,2.69803l0.2556,-0.04936l-0.521,-2.69802z"/>
  <path id="svg_135" fill="white" d="m87.1099,4.03383l-0.2564,0.04491l0.474,2.70676l0.2564,-0.0449l-0.474,-2.70677z"/>
  <path id="svg_136" fill="white" d="m88.4955,3.80455l-0.2572,0.04042l0.4267,2.71467l0.2572,-0.04042l-0.4267,-2.71467z"/>
  <path id="svg_137" fill="white" d="m89.8814,3.60452l-0.2579,0.03592l0.3792,2.72176l0.2578,-0.03592l-0.3791,-2.72176z"/>
  <path id="svg_138" fill="white" d="m91.2877,3.43154l-0.2584,0.03141l0.3316,2.72775l0.2584,-0.03142l-0.3316,-2.72774z"/>
  <path id="svg_139" fill="white" d="m92.6749,3.29501l-0.2589,0.02689l0.2838,2.73318l0.2589,-0.02688l-0.2838,-2.73319z"/>
  <path id="svg_140" fill="white" d="m94.0885,3.14663l-0.2594,0.02238l0.2361,2.73779l0.2594,-0.02237l-0.2361,-2.7378z"/>
  <path id="svg_141" fill="white" d="m95.5034,3.03215l-0.2597,0.01784l0.1882,2.74158l0.2597,-0.01783l-0.1882,-2.74159z"/>
  <path id="svg_142" fill="white" d="m96.9099,2.94819l-0.26,0.0133l0.1403,2.74427l0.26,-0.01329l-0.1403,-2.74428z"/>
  <path id="svg_143" fill="white" d="m98.2978,2.89419l-0.2602,0.00876l0.0925,2.74642l0.2602,-0.00877l-0.0925,-2.74641z"/>
  <path id="svg_144" fill="white" d="m99.7041,2.86834l-0.2603,0.00422l0.0446,2.74745l0.2602,-0.00422l-0.0445,-2.74745z"/>
  <path id="svg_145" fill="white" d="m101.122,2.87154l-0.261,-0.00032l-0.003,2.74794l0.26,0.00032l0.004,-2.74794z"/>
  <path id="svg_146" fill="white" d="m102.285,2.87645l-0.051,2.74733l0.26,0.00489l0.052,-2.74733l-0.261,-0.00489z"/>
  <path id="svg_147" fill="white" d="m103.687,2.90171l-0.1,2.74618l0.26,0.00949l0.1,-2.74618l-0.26,-0.00949z"/>
  <path id="svg_148" fill="white" d="m105.093,2.96073l-0.149,2.74392l0.26,0.01405l0.149,-2.74392l-0.26,-0.01405z"/>
  <path id="svg_149" fill="white" d="m106.501,3.03861l-0.194,2.74111l0.26,0.01837l0.194,-2.74111l-0.26,-0.01837z"/>
  <path id="svg_150" fill="white" d="m107.913,3.1439l-0.242,2.7372l0.259,0.02295l0.242,-2.73721l-0.259,-0.02294z"/>
  <path id="svg_151" fill="white" d="m109.299,3.29536l-0.291,2.73247l0.259,0.02755l0.29,-2.73247l-0.258,-0.02755z"/>
  <path id="svg_152" fill="white" d="m110.711,3.44532l-0.339,2.72692l0.258,0.03208l0.339,-2.72692l-0.258,-0.03208z"/>
  <path id="svg_153" fill="white" d="m112.099,3.63829l-0.387,2.72054l0.258,0.03666l0.387,-2.72054l-0.258,-0.03666z"/>
  <path id="svg_154" fill="white" d="m113.496,3.82789l-0.433,2.71361l0.257,0.04101l0.433,-2.71361l-0.257,-0.04101z"/>
  <path id="svg_155" fill="white" d="m114.895,4.06047l-0.482,2.70558l0.256,0.04562l0.482,-2.70559l-0.256,-0.04561z"/>
  <path id="svg_156" fill="white" d="m116.277,4.32313l-0.527,2.69701l0.256,0.04991l0.527,-2.69701l-0.256,-0.04991z"/>
  <path id="svg_157" fill="white" d="m117.652,4.605l-0.575,2.68705l0.255,0.05447l0.575,-2.68706l-0.255,-0.05446z"/>
  <path id="svg_158" fill="white" d="m119.013,4.90111l-0.62,2.67683l0.253,0.05879l0.621,-2.67684l-0.254,-0.05878z"/>
  <path id="svg_159" fill="white" d="m120.407,5.23934l-0.668,2.66551l0.252,0.06333l0.669,-2.6655l-0.253,-0.06334z"/>
  <path id="svg_160" fill="white" d="m121.772,5.58211l-0.715,2.65336l0.251,0.06769l0.715,-2.65336l-0.251,-0.06769z"/>
  <path id="svg_161" fill="white" d="m123.111,5.95351l-0.76,2.64067l0.25,0.07203l0.76,-2.64066l-0.25,-0.07204z"/>
  <path id="svg_162" fill="white" d="m124.471,6.35089l-0.806,2.62714l0.249,0.07635l0.806,-2.62714l-0.249,-0.07635z"/>
  <path id="svg_163" fill="white" d="m125.799,6.78943l-0.851,2.61279l0.247,0.08065l0.852,-2.6128l-0.248,-0.08064z"/>
  <path id="svg_164" fill="white" d="m127.166,7.2262l-0.897,2.59735l0.246,0.08501l0.897,-2.59735l-0.246,-0.08501z"/>
  <path id="svg_165" fill="white" d="m128.495,7.70859l-0.942,2.58111l0.244,0.0893l0.943,-2.5811l-0.245,-0.08931z"/>
  <path id="svg_166" fill="white" d="m129.797,8.1803l-0.988,2.5643l0.243,0.0936l0.988,-2.56429l-0.243,-0.09361z"/>
  <path id="svg_167" fill="white" d="m131.113,8.71711l-1.034,2.54609l0.241,0.0979l1.034,-2.54604l-0.241,-0.09795z"/>
  <path id="svg_168" fill="white" d="m132.401,9.25984l-1.076,2.52846l0.239,0.1019l1.076,-2.52841l-0.239,-0.10195z"/>
  <path id="svg_169" fill="white" d="m133.691,9.81566l-1.122,2.50834l0.237,0.1063l1.123,-2.50831l-0.238,-0.10633z"/>
  <path id="svg_170" fill="white" d="m134.981,10.3924l-1.165,2.4888l0.236,0.1103l1.165,-2.4887l-0.236,-0.1104z"/>
  <path id="svg_171" fill="white" d="m136.263,11.0048l-1.208,2.468l0.234,0.1145l1.208,-2.4681l-0.234,-0.1144z"/>
  <path id="svg_172" fill="white" d="m137.523,11.6228l-1.252,2.4466l0.232,0.1186l1.252,-2.4466l-0.232,-0.1186z"/>
  <path id="svg_173" fill="white" d="m138.762,12.2859l-1.294,2.4242l0.23,0.1226l1.294,-2.4243l-0.23,-0.1225z"/>
  <path id="svg_174" fill="white" d="m140.006,12.9417l-1.333,2.4025l0.227,0.1264l1.334,-2.4026l-0.228,-0.1263z"/>
  <path id="svg_175" fill="white" d="m141.243,13.6595l-1.377,2.378l0.225,0.1305l1.377,-2.378l-0.225,-0.1305z"/>
  <path id="svg_176" fill="white" d="m142.45,14.3706l-1.417,2.3543l0.223,0.1343l1.418,-2.3544l-0.224,-0.1342z"/>
  <path id="svg_177" fill="white" d="m143.647,15.102l-1.46,2.3279l0.22,0.1383l1.46,-2.3279l-0.22,-0.1383z"/>
  <path id="svg_178" fill="white" d="m144.856,15.844l-1.5,2.3025l0.219,0.1421l1.5,-2.3025l-0.219,-0.1421z"/>
  <path id="svg_179" fill="white" d="m146.02,16.6159l-1.54,2.2758l0.216,0.1459l1.54,-2.2759l-0.216,-0.1458z"/>
  <path id="svg_180" fill="white" d="m147.167,17.4264l-1.578,2.2494l0.213,0.1496l1.578,-2.2495l-0.213,-0.1495z"/>
  <path id="svg_181" fill="white" d="m148.317,18.2471l-1.619,2.2206l0.211,0.1533l1.618,-2.2206l-0.21,-0.1533z"/>
  <path id="svg_182" fill="white" d="m149.457,19.0971l-1.656,2.193l0.208,0.1569l1.655,-2.193l-0.207,-0.1569z"/>
  <path id="svg_183" fill="white" d="m150.578,19.9615l-1.694,2.1638l0.205,0.1605l1.694,-2.1639l-0.205,-0.1604z"/>
  <path id="svg_184" fill="white" d="m151.672,20.8084l-1.732,2.1342l0.203,0.164l1.731,-2.1342l-0.202,-0.164z"/>
  <path id="svg_185" fill="white" d="m152.775,21.7059l-1.769,2.1027l0.199,0.1676l1.769,-2.1027l-0.199,-0.1676z"/>
  <path id="svg_186" fill="white" d="m153.836,22.6297l-1.806,2.0717l0.197,0.171l1.805,-2.0716l-0.196,-0.1711z"/>
  <path id="svg_187" fill="white" d="m154.902,23.5662l-1.84,2.0402l0.193,0.1744l1.841,-2.0402l-0.194,-0.1744z"/>
  <path id="svg_188" fill="white" d="m155.928,24.5132l-1.876,2.0081l0.19,0.1777l1.877,-2.0081l-0.191,-0.1777z"/>
  <path id="svg_189" fill="white" d="m156.95,25.4779l-1.91,1.9753l0.187,0.181l1.91,-1.9753l-0.187,-0.181z"/>
  <path id="svg_190" fill="white" d="m157.971,26.4749l-1.946,1.9407l0.184,0.1843l1.946,-1.9406l-0.184,-0.1844z"/>
  <path id="svg_191" fill="white" d="m158.961,27.4762l-1.981,1.9055l0.181,0.1875l1.98,-1.9054l-0.18,-0.1876z"/>
  <path id="svg_192" fill="white" d="m159.94,28.4967l-2.013,1.8711l0.178,0.1907l2.012,-1.8711l-0.177,-0.1907z"/>
  <path id="svg_193" fill="white" d="m160.864,29.5409l-2.044,1.8359l0.174,0.1937l2.044,-1.8359l-0.174,-0.1937z"/>
  <path id="svg_194" fill="white" d="m161.817,30.5897l-2.076,1.8004l0.171,0.1967l2.076,-1.8004l-0.171,-0.1967z"/>
  <path id="svg_195" fill="white" d="m162.727,31.6527l-2.107,1.764l0.167,0.1997l2.107,-1.7641l-0.167,-0.1996z"/>
  <path id="svg_196" fill="white" d="m163.606,32.7487l-2.138,1.7258l0.163,0.2026l2.139,-1.7258l-0.164,-0.2026z"/>
  <path id="svg_197" fill="white" d="m164.482,33.8433l-2.168,1.6884l0.16,0.2054l2.168,-1.6884l-0.16,-0.2054z"/>
  <path id="svg_198" fill="white" d="m165.334,34.9518l-2.197,1.6505l0.157,0.2081l2.197,-1.6504l-0.157,-0.2082z"/>
  <path id="svg_199" fill="white" d="m166.199,36.0973l-2.224,1.6133l0.152,0.2108l2.225,-1.6133l-0.153,-0.2108z"/>
  <path id="svg_200" fill="white" d="m167.015,37.242l-2.253,1.5726l0.149,0.2135l2.253,-1.5726l-0.149,-0.2135z"/>
  <path id="svg_201" fill="white" d="m167.809,38.3911l-2.279,1.5344l0.145,0.2159l2.28,-1.5343l-0.146,-0.216z"/>
  <path id="svg_202" fill="white" d="m168.583,39.5727l-2.307,1.4942l0.142,0.2185l2.306,-1.4943l-0.141,-0.2184z"/>
  <path id="svg_203" fill="white" d="m169.351,40.775l-2.332,1.4544l0.138,0.2209l2.331,-1.4544l-0.137,-0.2209z"/>
  <path id="svg_204" fill="white" d="m170.099,41.9869l-2.358,1.4114l0.133,0.2234l2.358,-1.4115l-0.133,-0.2233z"/>
  <path id="svg_205" fill="white" d="m170.801,43.1991l-2.382,1.3707l0.13,0.2257l2.382,-1.3708l-0.13,-0.2256z"/>
  <path id="svg_206" fill="white" d="m171.493,44.399l-2.406,1.3279l0.126,0.2279l2.406,-1.3279l-0.126,-0.2279z"/>
  <path id="svg_207" fill="white" d="m172.176,45.6508l-2.428,1.2877l0.122,0.2299l2.428,-1.2877l-0.122,-0.2299z"/>
  <path id="svg_208" fill="white" d="m172.83,46.8874l-2.45,1.2454l0.118,0.232l2.45,-1.2453l-0.118,-0.2321z"/>
  <path id="svg_209" fill="white" d="m173.449,48.1723l-2.471,1.2022l0.114,0.2341l2.471,-1.2022l-0.114,-0.2341z"/>
  <path id="svg_210" fill="white" d="m174.056,49.426l-2.492,1.1587l0.11,0.2361l2.492,-1.1588l-0.11,-0.236z"/>
  <path id="svg_211" fill="white" d="m174.655,50.7174l-2.511,1.1162l0.105,0.2378l2.511,-1.1161l-0.105,-0.2379z"/>
  <path id="svg_212" fill="white" d="m175.214,52.0103l-2.531,1.07l0.101,0.2398l2.531,-1.07l-0.101,-0.2398z"/>
  <path id="svg_213" fill="white" d="m175.745,53.3075l-2.549,1.0276l0.098,0.2415l2.548,-1.0276l-0.097,-0.2415z"/>
  <path id="svg_214" fill="white" d="m176.272,54.5977l-2.567,0.9817l0.093,0.2432l2.567,-0.9817l-0.093,-0.2432z"/>
  <path id="svg_215" fill="white" d="m176.735,55.931l-2.583,0.9363l0.089,0.2448l2.583,-0.9364l-0.089,-0.2447z"/>
  <path id="svg_216" fill="white" d="m177.209,57.2533l-2.599,0.8907l0.084,0.2463l2.6,-0.8907l-0.085,-0.2463z"/>
  <path id="svg_217" fill="white" d="m177.689,58.6022l-2.615,0.8448l0.08,0.2477l2.615,-0.8448l-0.08,-0.2477z"/>
  <path id="svg_218" fill="white" d="m178.097,59.9318l-2.629,0.7994l0.076,0.2491l2.629,-0.7995l-0.076,-0.249z"/>
  <path id="svg_219" fill="white" d="m178.507,61.2775l-2.642,0.7538l0.071,0.2504l2.643,-0.7538l-0.072,-0.2504z"/>
  <path id="svg_220" fill="white" d="m178.856,62.6362l-2.655,0.7079l0.067,0.2516l2.655,-0.7079l-0.067,-0.2516z"/>
  <path id="svg_221" fill="white" d="m179.229,64.0217l-2.667,0.662l0.063,0.2527l2.667,-0.662l-0.063,-0.2527z"/>
  <path id="svg_222" fill="white" d="m179.531,65.3762l-2.678,0.6139l0.058,0.2537l2.678,-0.6138l-0.058,-0.2538z"/>
  <path id="svg_223" fill="white" d="m179.861,66.7472l-2.688,0.5683l0.054,0.2547l2.688,-0.5683l-0.054,-0.2547z"/>
  <path id="svg_224" fill="white" d="m180.14,68.1364l-2.698,0.5204l0.049,0.2556l2.699,-0.5204l-0.05,-0.2556z"/>
  <path id="svg_225" fill="white" d="m180.409,69.5186l-2.707,0.4748l0.045,0.2564l2.707,-0.4748l-0.045,-0.2564z"/>
  <path id="svg_226" fill="white" d="m180.63,70.9082l-2.714,0.4262l0.04,0.2571l2.715,-0.4261l-0.041,-0.2572z"/>
  <path id="svg_227" fill="white" d="m180.838,72.3256l-2.722,0.3802l0.036,0.2578l2.722,-0.3802l-0.036,-0.2578z"/>
  <path id="svg_228" fill="white" d="m181.01,73.7083l-2.728,0.3319l0.032,0.2584l2.727,-0.3318l-0.031,-0.2585z"/>
  <path id="svg_229" fill="white" d="m181.193,75.1102l-2.733,0.2841l0.027,0.2589l2.733,-0.284l-0.027,-0.259z"/>
  <path id="svg_230" fill="white" d="m181.311,76.4978l-2.738,0.2358l0.023,0.2593l2.737,-0.2357l-0.022,-0.2594z"/>
  <path id="svg_231" fill="white" d="m181.433,77.9107l-2.742,0.1871l0.018,0.2598l2.741,-0.1871l-0.017,-0.2598z"/>
  <path id="svg_232" fill="white" d="m181.519,79.321l-2.745,0.1415l0.014,0.2599l2.744,-0.1415l-0.013,-0.2599z"/>
  <path id="svg_233" fill="white" d="m181.584,80.7355l-2.747,0.0934l0.009,0.2601l2.747,-0.0933l-0.009,-0.2602z"/>
  <path id="svg_234" fill="white" d="m181.602,82.1434l-2.748,0.0451l0.005,0.2603l2.747,-0.0451l-0.004,-0.2603z"/>
  <path id="svg_235" fill="white" d="m181.35,83.8199l-2.459,-0.003l0.001,-0.2893l2.748,0.0034c-0.03,0.1736 -0.145,0.2891 -0.29,0.2889z"/>
  <path id="svg_236" fill="white" d="m170.272,82.4174l0.001,-0.4917l1.591,0.0019c0.174,0.0002 0.376,0.0005 0.607,0.0297c0,0 -0.057,-0.029 -0.115,-0.0869c-0.058,-0.0579 -0.174,-0.1738 -0.347,-0.3186l0.319,-0.2889l0.664,0.724l-0.001,0.4628l-2.719,-0.0034l0,-0.0289z"/>
  <path id="svg_237" fill="white" d="m173.048,83.7224c0,0.2024 -0.058,0.3759 -0.174,0.5204c-0.116,0.1156 -0.289,0.2021 -0.492,0.2019c-0.115,-0.0002 -0.231,-0.0292 -0.347,-0.0872c-0.115,-0.058 -0.202,-0.1738 -0.289,-0.2896c-0.116,0.1734 -0.231,0.26 -0.347,0.3466c-0.116,0.0577 -0.261,0.0865 -0.376,0.0863c-0.232,-0.0002 -0.405,-0.0583 -0.55,-0.2031c-0.144,-0.1448 -0.202,-0.3184 -0.201,-0.5499c0,-0.2314 0.058,-0.4338 0.203,-0.5493c0.116,-0.1445 0.318,-0.2021 0.55,-0.2018c0.144,0.0002 0.289,0.0293 0.404,0.0873c0.116,0.058 0.232,0.1738 0.318,0.3186c0.116,-0.1156 0.203,-0.2312 0.319,-0.2889c0.115,-0.0577 0.231,-0.0865 0.347,-0.0863c0.202,0.0002 0.376,0.0583 0.491,0.203c0.058,0.1158 0.145,0.2895 0.144,0.492zm-2.053,-0.2629c-0.116,-0.0002 -0.202,0.0287 -0.26,0.0575c-0.058,0.0578 -0.087,0.1156 -0.087,0.2024c0,0.0868 0.028,0.1736 0.086,0.2026c0.058,0.0579 0.145,0.058 0.26,0.0582c0.087,0.0001 0.145,-0.0288 0.232,-0.0576c0.058,-0.0289 0.145,-0.1155 0.232,-0.2022l0.028,-0.0289c-0.057,-0.0868 -0.115,-0.1448 -0.202,-0.1738c-0.087,-0.029 -0.173,-0.0581 -0.289,-0.0582zm1.648,0.2624c0.001,-0.0579 -0.028,-0.1158 -0.086,-0.1737c-0.058,-0.029 -0.116,-0.058 -0.231,-0.0581c-0.087,-0.0002 -0.145,0.0287 -0.203,0.0576c-0.058,0.0288 -0.116,0.0866 -0.203,0.1733c0.058,0.0868 0.116,0.1447 0.203,0.1738c0.057,0.029 0.144,0.058 0.231,0.0581c0.173,0.0002 0.289,-0.0864 0.289,-0.231z"/>
  <path id="svg_238" fill="white" d="m171.627,86.2372c-0.491,-0.0006 -0.838,-0.0589 -1.07,-0.1749c-0.231,-0.116 -0.318,-0.3186 -0.317,-0.5789c0,-0.2603 0.116,-0.4627 0.348,-0.5781c0.231,-0.1154 0.578,-0.1728 1.07,-0.1722c0.492,0.0006 0.839,0.0589 1.07,0.1748c0.231,0.116 0.347,0.3187 0.347,0.579c-0.001,0.2603 -0.117,0.4627 -0.319,0.5781c-0.261,0.1154 -0.637,0.1728 -1.129,0.1722zm0.002,-0.9835c-0.377,-0.0005 -0.637,0.0281 -0.782,0.0569c-0.144,0.0287 -0.202,0.0865 -0.202,0.1733c0,0.0578 0.029,0.1157 0.086,0.1447c0.058,0.029 0.145,0.0581 0.29,0.0872c0.144,0.0291 0.347,0.0293 0.607,0.0296c0.376,0.0005 0.636,-0.0281 0.781,-0.0569c0.145,-0.0287 0.203,-0.0865 0.203,-0.2022c0,-0.0868 -0.058,-0.1447 -0.203,-0.1738c-0.144,-0.0291 -0.404,-0.0583 -0.78,-0.0588z"/>
  <path id="svg_239" fill="white" d="m169.015,70.4116l-0.087,-0.4918l1.592,-0.2873c0.173,-0.0287 0.376,-0.0574 0.607,-0.086c0,0 -0.058,-0.029 -0.115,-0.0869c-0.058,-0.058 -0.203,-0.1449 -0.405,-0.2609l0.261,-0.3468l0.78,0.6084l0.086,0.434l-2.719,0.5173z"/>
  <path id="svg_240" fill="white" d="m169.13,71.1351l2.371,0.3501l-0.172,-0.9259l0.434,-0.0862l0.258,1.4466l-0.347,0.0574l-2.429,-0.3212l-0.115,-0.5208z"/>
  <path id="svg_241" fill="white" d="m171.006,73.9144c-0.492,0.0862 -0.839,0.0857 -1.099,-0.0014c-0.231,-0.087 -0.376,-0.2608 -0.433,-0.5212c-0.058,-0.2604 0.029,-0.4627 0.232,-0.6071c0.203,-0.1444 0.55,-0.2597 1.013,-0.3459c0.492,-0.0861 0.839,-0.0857 1.099,0.0014c0.231,0.0871 0.376,0.2608 0.433,0.4923c0.058,0.2604 -0.029,0.4627 -0.232,0.6071c-0.145,0.1734 -0.492,0.2887 -1.013,0.3748zm-0.143,-0.9547c-0.376,0.0574 -0.637,0.1149 -0.752,0.1726c-0.116,0.0577 -0.174,0.1155 -0.174,0.2312c0,0.0578 0.057,0.1158 0.115,0.1158c0.058,0.029 0.174,0.0292 0.289,0.0293c0.145,0.0002 0.319,-0.0285 0.608,-0.086c0.376,-0.0574 0.608,-0.115 0.752,-0.1726c0.116,-0.0577 0.174,-0.1444 0.174,-0.2312c-0.029,-0.0868 -0.086,-0.1448 -0.231,-0.1449c-0.174,-0.0003 -0.434,0.0284 -0.781,0.0858z"/>
  <path id="svg_242" fill="white" d="m165.703,58.779l-0.173,-0.4631l1.504,-0.5477c0.174,-0.0576 0.348,-0.1153 0.579,-0.1728c-0.029,-0.0001 -0.058,-0.029 -0.144,-0.0581c-0.087,-0.029 -0.232,-0.087 -0.434,-0.1741l0.203,-0.3757l0.867,0.4638l0.144,0.4341l-2.546,0.8936z"/>
  <path id="svg_243" fill="white" d="m166.975,58.8962c0.521,-0.2018 0.926,-0.2592 1.244,-0.172c0.29,0.0871 0.521,0.2899 0.636,0.6082c0.029,0.0579 0.029,0.1158 0.058,0.1737c0,0.0578 0.029,0.0868 0.028,0.1157l-0.405,0.1441c0,-0.0867 -0.028,-0.1736 -0.057,-0.2604c-0.058,-0.1447 -0.116,-0.2315 -0.202,-0.2895c-0.087,-0.0579 -0.203,-0.087 -0.347,-0.0872c-0.145,-0.0002 -0.319,0.0285 -0.521,0.0861l0,0.029c0.116,0.0001 0.202,0.0291 0.289,0.0871c0.087,0.058 0.145,0.1159 0.173,0.2316c0.058,0.1737 0.029,0.3182 -0.058,0.4917c-0.116,0.1445 -0.29,0.26 -0.55,0.3754c-0.261,0.0864 -0.521,0.115 -0.723,0.0569c-0.203,-0.0581 -0.347,-0.2029 -0.434,-0.4344c-0.086,-0.2315 -0.057,-0.434 0.088,-0.6363c0.145,-0.2312 0.405,-0.3755 0.781,-0.5197zm-0.464,0.954c0.029,0.0579 0.087,0.1158 0.174,0.1159c0.087,0.0291 0.231,0.0003 0.376,-0.0574c0.145,-0.0576 0.231,-0.1154 0.289,-0.1732c0.058,-0.0577 0.087,-0.1445 0.058,-0.2024c-0.028,-0.0579 -0.086,-0.1158 -0.173,-0.1159c-0.087,-0.029 -0.173,-0.0002 -0.289,0.0286c-0.174,0.0576 -0.29,0.1153 -0.376,0.202c-0.058,0.0578 -0.087,0.1445 -0.059,0.2024z"/>
  <path id="svg_244" fill="white" d="m168.273,61.906c-0.463,0.173 -0.81,0.2304 -1.07,0.2012c-0.261,-0.0293 -0.405,-0.1741 -0.521,-0.4346c-0.086,-0.2604 -0.057,-0.4628 0.117,-0.6362c0.174,-0.1733 0.492,-0.3465 0.955,-0.5195c0.463,-0.173 0.81,-0.2304 1.071,-0.2011c0.26,0.0292 0.433,0.1741 0.52,0.4345c0.086,0.2604 0.057,0.4629 -0.117,0.6362c-0.145,0.1734 -0.463,0.3466 -0.955,0.5195zm-0.346,-0.926c-0.347,0.1442 -0.608,0.2306 -0.723,0.3172c-0.116,0.0867 -0.145,0.1445 -0.116,0.2313c0.028,0.0579 0.057,0.0869 0.144,0.1159c0.058,0.0001 0.174,0.0002 0.289,-0.0286c0.116,-0.0288 0.319,-0.0864 0.579,-0.1728c0.347,-0.1153 0.579,-0.2307 0.695,-0.3173c0.115,-0.0867 0.173,-0.1734 0.116,-0.2602c-0.029,-0.0868 -0.116,-0.1159 -0.26,-0.1161c-0.116,0.0288 -0.348,0.0864 -0.724,0.2306z"/>
  <path id="svg_245" fill="white" d="m160.393,47.8962l-0.259,-0.4342l1.389,-0.8082c0.145,-0.0866 0.319,-0.1732 0.521,-0.2886c-0.029,-0.0001 -0.058,-0.0001 -0.144,-0.0291c-0.087,-0.0291 -0.232,-0.0582 -0.463,-0.1163l0.116,-0.4048l0.954,0.2904l0.231,0.4053l-2.345,1.3855z"/>
  <path id="svg_246" fill="white" d="m162.563,48.217c0.115,0.1737 0.115,0.3472 0.057,0.5207c-0.058,0.1735 -0.203,0.3179 -0.405,0.4623c-0.261,0.1443 -0.492,0.2019 -0.724,0.1437c-0.231,-0.0581 -0.404,-0.2029 -0.52,-0.4345c-0.115,-0.2026 -0.173,-0.4052 -0.173,-0.5787l0.406,-0.2309c-0.001,0.0868 -0.001,0.1735 0.028,0.2603c0.029,0.1158 0.058,0.2026 0.087,0.2605c0.144,0.2316 0.346,0.2607 0.607,0.1164c0.26,-0.1443 0.318,-0.3178 0.174,-0.5493c-0.058,-0.0869 -0.115,-0.1737 -0.202,-0.2606l0.029,-0.2025l1.245,-0.6059l0.577,1.0131l-0.405,0.231l-0.376,-0.6369l-0.52,0.2597c-0.001,0.0868 0.057,0.1447 0.115,0.2316z"/>
  <path id="svg_247" fill="white" d="m163.485,50.5322c-0.434,0.2598 -0.781,0.3751 -1.012,0.3748c-0.261,-0.0003 -0.434,-0.1162 -0.579,-0.3189c-0.144,-0.2316 -0.144,-0.463 0.001,-0.6653c0.145,-0.2023 0.406,-0.4334 0.84,-0.6932c0.434,-0.2598 0.781,-0.375 1.013,-0.3748c0.26,0.0004 0.434,0.1163 0.578,0.3189c0.144,0.2316 0.144,0.4341 -0.001,0.6653c-0.116,0.2024 -0.405,0.4334 -0.84,0.6932zm-0.49,-0.8684c-0.319,0.2021 -0.55,0.3465 -0.637,0.4331c-0.087,0.0867 -0.116,0.1734 -0.087,0.2603c0.029,0.0578 0.086,0.0868 0.144,0.0869c0.058,0.0001 0.174,-0.0287 0.29,-0.0864c0.115,-0.0577 0.289,-0.1443 0.521,-0.2886c0.318,-0.2021 0.55,-0.3175 0.637,-0.4331c0.115,-0.0867 0.115,-0.1734 0.087,-0.2602c-0.058,-0.0869 -0.145,-0.087 -0.261,-0.0582c-0.144,0.0577 -0.376,0.1731 -0.694,0.3462z"/>
  <path id="svg_248" fill="white" d="m153.29,38.1102l-0.318,-0.3764l1.245,-1.0398c0.145,-0.1156 0.289,-0.2311 0.492,-0.3755c-0.029,0 -0.058,0 -0.145,-0.0001c-0.086,-0.0001 -0.231,-0.0003 -0.462,-0.0295l0.058,-0.4049l0.983,0.1169l0.289,0.3475l-2.142,1.7618z"/>
  <path id="svg_249" fill="white" d="m155.11,39.3851l-0.173,-0.2027l-0.434,0.3755l-0.318,-0.3765l0.434,-0.3755l-0.577,-0.6949l0.318,-0.2599l1.881,-0.4894l0.346,0.4053l-1.332,1.1265l0.174,0.2027l-0.319,0.2889zm-0.172,-0.868l0.434,-0.3755l0.203,-0.1444l0.202,-0.1444c-0.144,0.0577 -0.26,0.0865 -0.376,0.1153l-0.752,0.2015l0.289,0.3475z"/>
  <path id="svg_250" fill="white" d="m156.787,40.1681c-0.376,0.3177 -0.695,0.4909 -0.926,0.5485c-0.232,0.0575 -0.463,-0.0295 -0.636,-0.2322c-0.174,-0.2027 -0.202,-0.4342 -0.115,-0.6365c0.087,-0.2024 0.318,-0.4914 0.724,-0.8091c0.376,-0.3177 0.695,-0.4908 0.955,-0.5484c0.26,-0.0575 0.463,0.0295 0.636,0.2322c0.173,0.2027 0.202,0.4052 0.115,0.6365c-0.116,0.2024 -0.348,0.4913 -0.753,0.809zm-0.635,-0.7528c-0.29,0.2599 -0.493,0.4332 -0.551,0.5489c-0.087,0.1156 -0.087,0.2023 -0.029,0.2603c0.029,0.0579 0.087,0.0579 0.173,0.058c0.058,0.0001 0.145,-0.0576 0.261,-0.1153c0.116,-0.0867 0.261,-0.2022 0.463,-0.3755c0.29,-0.2311 0.464,-0.4333 0.55,-0.5489c0.087,-0.1156 0.088,-0.2024 0.03,-0.2892c-0.058,-0.058 -0.145,-0.087 -0.289,-0.0004c-0.087,0.0577 -0.319,0.2021 -0.608,0.4621z"/>
  <path id="svg_251" fill="white" d="m144.593,29.7109l-0.375,-0.3187l1.043,-1.2425c0.115,-0.1445 0.26,-0.2889 0.405,-0.4334c-0.029,0 -0.058,-0.0001 -0.145,0.0288c-0.086,-0.0001 -0.231,0.0286 -0.463,0.0572l-0.028,-0.4339l0.984,-0.0566l0.346,0.2897l-1.767,2.1094z"/>
  <path id="svg_252" fill="white" d="m147.485,29.3376c-0.116,0.1445 -0.231,0.2022 -0.376,0.2599c-0.145,0.0287 -0.289,0.0285 -0.434,-0.0584c0.116,0.1447 0.173,0.2605 0.173,0.4051c0,0.1447 -0.058,0.2892 -0.174,0.4337c-0.174,0.2023 -0.347,0.2888 -0.579,0.3175c-0.202,-0.0003 -0.434,-0.0584 -0.636,-0.2322c-0.173,-0.1449 -0.318,-0.3186 -0.375,-0.4922l0.289,-0.3468c0.029,0.0869 0.087,0.1737 0.116,0.2605c0.057,0.0869 0.115,0.1448 0.173,0.2027c0.116,0.0869 0.202,0.1449 0.318,0.145c0.087,0.0001 0.203,-0.0576 0.29,-0.1732c0.173,-0.2022 0.145,-0.4337 -0.115,-0.6365l-0.116,-0.0869l0.232,-0.289l0.115,0.087c0.116,0.0869 0.232,0.1449 0.318,0.145c0.116,0.0001 0.203,-0.0576 0.29,-0.1732c0.058,-0.0867 0.116,-0.1734 0.087,-0.2313c0,-0.0868 -0.029,-0.1447 -0.116,-0.2026c-0.115,-0.087 -0.26,-0.145 -0.433,-0.1163l0.029,-0.4049c0.261,-0.0286 0.492,0.0585 0.723,0.2323c0.173,0.1448 0.289,0.3185 0.289,0.4921c0.086,0.1447 0.028,0.3182 -0.088,0.4627z"/>
  <path id="svg_253" fill="white" d="m148.41,31.1041c-0.319,0.3756 -0.608,0.6067 -0.84,0.6932c-0.231,0.0865 -0.463,0.0572 -0.665,-0.1166c-0.202,-0.1738 -0.289,-0.3764 -0.231,-0.6077c0.058,-0.2313 0.232,-0.5493 0.551,-0.9249c0.319,-0.3757 0.608,-0.6067 0.84,-0.6932c0.231,-0.0865 0.463,-0.0573 0.636,0.1165c0.202,0.1738 0.289,0.3764 0.231,0.6077c-0.001,0.2314 -0.204,0.5493 -0.522,0.925zm-0.752,-0.6373c-0.26,0.2889 -0.405,0.4912 -0.463,0.6358c-0.058,0.1156 -0.058,0.2024 0.028,0.2603c0.058,0.029 0.116,0.058 0.174,0.0292c0.058,-0.0289 0.145,-0.0866 0.232,-0.1733c0.086,-0.0867 0.231,-0.2311 0.405,-0.4334c0.232,-0.2889 0.406,-0.4912 0.464,-0.6358c0.058,-0.1156 0.058,-0.2313 0,-0.2892c-0.058,-0.0579 -0.173,-0.0581 -0.289,0.0285c-0.145,0.1156 -0.319,0.2889 -0.551,0.5779z"/>
  <path id="svg_254" fill="white" d="m134.593,22.9296l-0.433,-0.2609l0.811,-1.3874c0.087,-0.1445 0.203,-0.3179 0.319,-0.5203c0,0 -0.058,0.0289 -0.145,0.0577c-0.086,0.0288 -0.231,0.0576 -0.463,0.1441l-0.086,-0.4051l0.955,-0.2302l0.405,0.2319l-1.363,2.3702z"/>
  <path id="svg_255" fill="white" d="m136.328,23.9439l-1.272,-0.7247l0.203,-0.3179l0.752,-0.3462c0.203,-0.0865 0.348,-0.1731 0.463,-0.2308c0.087,-0.0578 0.174,-0.1155 0.232,-0.1733c0.058,-0.0578 0.116,-0.1445 0.174,-0.2022c0.058,-0.0868 0.058,-0.1735 0.058,-0.2314c0,-0.0578 -0.058,-0.1158 -0.116,-0.1737c-0.057,-0.029 -0.115,-0.058 -0.173,-0.058c-0.058,-0.0001 -0.174,0.0287 -0.289,0.0575l-0.087,-0.4051c0.174,-0.0577 0.348,-0.0864 0.463,-0.0862c0.116,0.0001 0.232,0.0581 0.347,0.1161c0.203,0.116 0.318,0.2607 0.347,0.4343c0.029,0.1736 -0.001,0.3471 -0.117,0.5495c-0.058,0.0867 -0.115,0.1734 -0.173,0.2312c-0.058,0.0577 -0.145,0.1444 -0.232,0.2022c-0.087,0.0577 -0.174,0.1154 -0.29,0.1732c-0.115,0.0577 -0.376,0.173 -0.81,0.3461l0.781,0.4348l-0.261,0.4046z"/>
  <path id="svg_256" fill="white" d="m138.584,23.6575c-0.261,0.4336 -0.492,0.7226 -0.695,0.838c-0.203,0.1444 -0.434,0.1441 -0.665,-0.0008c-0.232,-0.1449 -0.347,-0.3186 -0.318,-0.5789c0.001,-0.2604 0.146,-0.5784 0.378,-1.012c0.26,-0.4335 0.492,-0.6936 0.695,-0.8379c0.202,-0.1444 0.434,-0.1441 0.665,0.0008c0.231,0.1449 0.347,0.3186 0.318,0.5789c-0.001,0.2314 -0.146,0.5783 -0.378,1.0119zm-0.867,-0.4928c-0.203,0.3179 -0.319,0.5492 -0.348,0.6938c-0.029,0.1446 -0.029,0.2314 0.058,0.2604c0.057,0.029 0.115,0.0291 0.173,0.0002c0.058,-0.0288 0.116,-0.1155 0.203,-0.2022c0.087,-0.1156 0.174,-0.2891 0.319,-0.5203c0.203,-0.3179 0.29,-0.5492 0.348,-0.6938c0.029,-0.1446 0.029,-0.2313 -0.058,-0.2604c-0.086,-0.0579 -0.173,-0.0291 -0.26,0.0865c-0.087,0.0867 -0.232,0.3179 -0.435,0.6358z"/>
  <path id="svg_257" fill="white" d="m123.55,17.9986l-0.463,-0.1741l0.552,-1.5034c0.058,-0.1735 0.145,-0.347 0.232,-0.5493c0,0 -0.058,0.0288 -0.116,0.0866c-0.087,0.0288 -0.203,0.1154 -0.434,0.2019l-0.173,-0.3762l0.926,-0.3749l0.434,0.1452l-0.958,2.5442z"/>
  <path id="svg_258" fill="white" d="m125.198,18.608l-0.463,-0.1741l0.552,-1.5035c0.058,-0.1734 0.145,-0.3469 0.232,-0.5493c0,0 -0.058,0.0289 -0.116,0.0867c-0.087,0.0288 -0.203,0.1154 -0.434,0.2019l-0.173,-0.3762l0.926,-0.3749l0.433,0.1451l-0.957,2.5443z"/>
  <path id="svg_259" fill="white" d="m127.6,18.0324c-0.175,0.4626 -0.349,0.7806 -0.522,0.9539c-0.174,0.1733 -0.406,0.202 -0.666,0.1149c-0.26,-0.0871 -0.375,-0.2608 -0.433,-0.5212c-0.029,-0.2604 0.03,-0.6074 0.204,-1.07c0.174,-0.4626 0.348,-0.7806 0.551,-0.9539c0.202,-0.1733 0.405,-0.202 0.636,-0.1149c0.26,0.0871 0.376,0.2608 0.433,0.4923c0.029,0.2603 -0.029,0.6363 -0.203,1.0989zm-0.926,-0.3483c-0.145,0.347 -0.203,0.6072 -0.232,0.7518c0,0.1447 0.029,0.2315 0.115,0.2605c0.058,0.029 0.116,0.0001 0.174,-0.0287c0.058,-0.0289 0.116,-0.1156 0.174,-0.2312c0.058,-0.1156 0.145,-0.318 0.232,-0.5493c0.116,-0.347 0.203,-0.6072 0.203,-0.7518c0,-0.1446 -0.028,-0.2315 -0.115,-0.2605c-0.087,-0.029 -0.174,-0.0002 -0.261,0.1154c-0.058,0.1156 -0.174,0.3469 -0.29,0.6938z"/>
  <path id="svg_260" fill="white" d="m111.809,15.0624l-0.492,-0.0873l0.291,-1.5906c0.03,-0.1735 0.088,-0.3759 0.146,-0.5783c0,0 -0.058,0.0288 -0.116,0.0866c-0.058,0.0578 -0.203,0.1444 -0.376,0.2888l-0.231,-0.3474l0.839,-0.5486l0.434,0.0874l-0.495,2.6894z"/>
  <path id="svg_261" fill="white" d="m114.066,14.0818c-0.087,0.4916 -0.203,0.8386 -0.377,1.0119c-0.145,0.2023 -0.376,0.2599 -0.637,0.2307c-0.26,-0.0582 -0.433,-0.203 -0.491,-0.4345c-0.086,-0.2315 -0.057,-0.6075 0.03,-1.0992c0.088,-0.4916 0.204,-0.8386 0.378,-1.0408c0.145,-0.2023 0.376,-0.2888 0.607,-0.2307c0.261,0.0582 0.434,0.1741 0.492,0.4345c0.086,0.2604 0.086,0.6365 -0.002,1.1281zm-0.983,-0.1748c-0.058,0.376 -0.088,0.6363 -0.088,0.7809c0,0.1447 0.058,0.2026 0.145,0.2316c0.057,0.0001 0.115,0.0002 0.144,-0.0577c0.058,-0.0577 0.087,-0.1445 0.116,-0.2601c0.029,-0.1157 0.088,-0.3181 0.117,-0.5784c0.058,-0.376 0.087,-0.6363 0.088,-0.7809c0,-0.1446 -0.058,-0.2315 -0.145,-0.2316c-0.087,-0.029 -0.173,0.0287 -0.231,0.1733c-0.001,0.0868 -0.059,0.347 -0.146,0.7229z"/>
  <path id="svg_262" fill="white" d="m115.802,14.402c-0.088,0.4916 -0.204,0.8386 -0.378,1.0119c-0.145,0.2023 -0.376,0.2599 -0.636,0.2307c-0.261,-0.0582 -0.434,-0.2031 -0.491,-0.4345c-0.087,-0.2316 -0.058,-0.6075 0.03,-1.0992c0.087,-0.4916 0.203,-0.8386 0.377,-1.0408c0.145,-0.2023 0.377,-0.2888 0.608,-0.2307c0.26,0.0582 0.434,0.1741 0.491,0.4345c0.115,0.2605 0.086,0.6075 -0.001,1.1281zm-0.955,-0.1747c-0.058,0.3759 -0.087,0.6362 -0.087,0.7809c-0.001,0.1446 0.057,0.2025 0.144,0.2315c0.058,0.0001 0.116,0.0002 0.145,-0.0576c0.058,-0.0578 0.087,-0.1446 0.116,-0.2602c0.029,-0.1157 0.087,-0.3181 0.116,-0.5784c0.058,-0.376 0.088,-0.6363 0.088,-0.7809c0,-0.1446 -0.058,-0.2315 -0.145,-0.2316c-0.086,-0.029 -0.173,0.0287 -0.231,0.1733c-0.029,0.0867 -0.087,0.347 -0.146,0.723z"/>
  <path id="svg_263" fill="white" d="m100.528,15.1932c-0.003,2.314 -0.7857,3.4412 -2.3188,3.4393c-0.2603,-0.0004 -0.4628,-0.0295 -0.6363,-0.0587l0.0012,-0.9256c0.1735,0.0581 0.347,0.0872 0.5205,0.0874c0.4628,0.0006 0.8101,-0.1436 1.0419,-0.4615c0.2318,-0.3179 0.3771,-0.8095 0.4068,-1.5036l-0.0289,-0.0001c-0.087,0.2024 -0.2029,0.3758 -0.3766,0.4913c-0.1737,0.1155 -0.3474,0.1731 -0.5788,0.1728c-0.4049,-0.0005 -0.7229,-0.1744 -0.9539,-0.4929c-0.231,-0.3474 -0.3461,-0.7814 -0.3454,-1.3599c0.0008,-0.6364 0.146,-1.1569 0.4357,-1.5036c0.2897,-0.3757 0.6949,-0.5488 1.1866,-0.5481c0.5207,0.0006 0.9543,0.2325 1.214,0.6957c0.289,0.4342 0.433,1.0997 0.432,1.9675zm-1.6471,-1.7376c-0.1735,-0.0002 -0.2894,0.0864 -0.4053,0.2598c-0.087,0.1735 -0.1452,0.4626 -0.1456,0.8387c-0.0004,0.3182 0.0282,0.5496 0.1148,0.7233c0.0865,0.1736 0.2021,0.2605 0.3757,0.2608c0.1446,0.0001 0.2894,-0.0865 0.4053,-0.2599c0.1159,-0.1734 0.174,-0.3758 0.1743,-0.6072c0.0004,-0.3471 -0.0571,-0.6364 -0.1436,-0.868c-0.0865,-0.2315 -0.202,-0.3473 -0.3756,-0.3475z"/>
  <path id="svg_264" fill="white" d="m104.432,15.6029c-0.002,1.0702 -0.147,1.851 -0.408,2.3425c-0.261,0.4914 -0.666,0.7223 -1.245,0.7216c-0.578,-0.0007 -0.983,-0.2327 -1.243,-0.7247c-0.259,-0.4921 -0.374,-1.2732 -0.373,-2.3435c0.002,-1.0702 0.147,-1.851 0.408,-2.3424c0.261,-0.4915 0.666,-0.7224 1.245,-0.7216c0.578,0.0007 0.983,0.2326 1.243,0.7246c0.231,0.4342 0.374,1.2443 0.373,2.3435zm-2.17,-0.0027c-0.001,0.8388 0.028,1.3885 0.114,1.6778c0.058,0.2894 0.202,0.4342 0.404,0.4344c0.145,0.0002 0.232,-0.0575 0.319,-0.2021c0.087,-0.1156 0.116,-0.3469 0.174,-0.6361c0.029,-0.2892 0.059,-0.7231 0.06,-1.3016c0.001,-0.8099 -0.028,-1.3885 -0.114,-1.6778c-0.086,-0.2894 -0.202,-0.4631 -0.404,-0.4634c-0.203,-0.0002 -0.348,0.1442 -0.406,0.4334c-0.116,0.347 -0.146,0.8966 -0.147,1.7354z"/>
  <path id="svg_265" fill="white" d="m87.4555,12.689c0.2025,-0.0286 0.376,0.0005 0.5206,0.0874c0.1445,0.087 0.2311,0.2607 0.2597,0.4632c0.0288,0.1157 -0.0003,0.2603 -0.0293,0.3471c-0.0291,0.1156 -0.116,0.2312 -0.2319,0.3468c0.1735,0.087 0.318,0.1739 0.4046,0.2897c0.0867,0.1158 0.1444,0.2316 0.1731,0.3763c0.0287,0.2314 -0.0005,0.4049 -0.1164,0.5784c-0.1159,0.1444 -0.2896,0.2599 -0.4921,0.2886c-0.2314,0.0286 -0.4339,-0.0005 -0.5784,-0.0875c-0.1445,-0.1159 -0.26,-0.2606 -0.2886,-0.4921c-0.0288,-0.1446 -0.0286,-0.2893 0.0294,-0.4338c0.0581,-0.1446 0.1161,-0.2602 0.2608,-0.3757c-0.1445,-0.087 -0.2601,-0.1739 -0.3178,-0.2608c-0.0867,-0.0869 -0.1155,-0.2026 -0.1442,-0.3473c-0.0287,-0.2025 0.0004,-0.376 0.1163,-0.5205c0.058,-0.1156 0.2317,-0.2022 0.4342,-0.2598zm0.0574,0.4051c-0.0579,-0.0001 -0.1158,0.0577 -0.1448,0.1155c-0.029,0.0578 -0.0291,0.1446 -0.0292,0.2314c-0.0001,0.0867 0.0287,0.1446 0.0865,0.2025c0.0289,0.0579 0.1156,0.1159 0.2023,0.1738c0.0579,-0.0867 0.1159,-0.1444 0.1449,-0.2312c0.029,-0.0578 0.0291,-0.1446 0.0003,-0.2314c-0.0287,-0.2025 -0.1154,-0.2894 -0.26,-0.2606zm0.0268,1.6777c0.0288,0.1157 0.0576,0.2025 0.1154,0.2605c0.0578,0.0579 0.1156,0.0869 0.2024,0.0581c0.0868,-0.0289 0.1447,-0.0577 0.1737,-0.1445c0.029,-0.0578 0.0292,-0.1735 0.0293,-0.2602c0.0001,-0.0868 -0.0577,-0.1447 -0.0865,-0.2026c-0.0578,-0.058 -0.1445,-0.1159 -0.2601,-0.2028l-0.0289,-0.029c-0.058,0.0867 -0.1159,0.1445 -0.1449,0.2312c-0.0291,0.0868 -0.0292,0.1735 -0.0004,0.2893z"/>
  <path id="svg_266" fill="white" d="m90.1735,13.6474c0.0862,0.4918 0.0857,0.8389 -0.0014,1.0992c-0.087,0.2313 -0.2607,0.3757 -0.5211,0.4332c-0.2605,0.0575 -0.4628,-0.0295 -0.6072,-0.2321c-0.1444,-0.2027 -0.2597,-0.55 -0.3459,-1.0129c-0.0861,-0.4918 -0.0857,-0.8389 0.0014,-1.0991c0.0871,-0.2313 0.2608,-0.3758 0.4923,-0.4333c0.2604,-0.0576 0.4627,0.0295 0.6071,0.2321c0.1734,0.1738 0.2886,0.5211 0.3748,1.0129zm-0.9837,0.1723c0.0574,0.3761 0.1149,0.6365 0.1726,0.7523c0.0578,0.1158 0.1155,0.1737 0.2312,0.1739c0.0579,0 0.1158,-0.0577 0.1159,-0.1156c0.029,-0.0578 0.0291,-0.1735 0.0293,-0.2892c0.0001,-0.1447 -0.0286,-0.3182 -0.0861,-0.6076c-0.0573,-0.3761 -0.1149,-0.6076 -0.1726,-0.7523c-0.0577,-0.1157 -0.1444,-0.1737 -0.2312,-0.1738c-0.0868,0.0288 -0.1447,0.0866 -0.1449,0.2312c-0.0002,0.1447 0.0284,0.405 0.0858,0.7811z"/>
  <path id="svg_267" fill="white" d="m75.762,18.8937l-0.0549,-2.4009l-0.8971,0.3171l-0.1441,-0.4341l1.389,-0.49l0.1154,0.3183l0.1126,2.4878l-0.5209,0.2018z"/>
  <path id="svg_268" fill="white" d="m78.1948,16.583c0.173,0.463 0.2304,0.8102 0.2011,1.0705c-0.0292,0.2603 -0.174,0.4047 -0.4345,0.5201c-0.2604,0.0865 -0.4629,0.0573 -0.6362,-0.1165c-0.1734,-0.1737 -0.3465,-0.4921 -0.5195,-0.9552c-0.173,-0.463 -0.2304,-0.8102 -0.2012,-1.0705c0.0293,-0.2603 0.1741,-0.4336 0.4346,-0.5201c0.2604,-0.0864 0.4629,-0.0573 0.6362,0.1165c0.1734,0.1448 0.3465,0.4632 0.5195,0.9552zm-0.926,0.317c0.1442,0.3473 0.2306,0.6078 0.3173,0.7236c0.0866,0.1158 0.1444,0.1448 0.2312,0.116c0.0579,-0.0289 0.0869,-0.0578 0.1159,-0.1445c0.0001,-0.0579 0.0002,-0.1736 -0.0286,-0.2893c-0.0288,-0.1158 -0.0864,-0.3183 -0.1728,-0.5788c-0.1153,-0.3472 -0.2307,-0.5788 -0.3173,-0.6946c-0.0867,-0.1158 -0.1734,-0.1737 -0.2602,-0.116c-0.0868,0.0288 -0.1159,0.1156 -0.116,0.2602c0.0287,0.1447 0.0863,0.3761 0.2305,0.7234z"/>
  <path id="svg_269" fill="white" d="m64.4462,23.2762c-0.2887,-0.4921 -0.4039,-0.8683 -0.3746,-1.1864c0.0293,-0.3182 0.1742,-0.5494 0.4926,-0.7226c0.0579,-0.0288 0.0869,-0.0577 0.1448,-0.0866c0.0579,-0.0288 0.0868,-0.0288 0.1157,-0.0577l0.2021,0.3763c-0.0869,0.0288 -0.1737,0.0576 -0.2316,0.1154c-0.1158,0.0577 -0.2027,0.1444 -0.2606,0.26c-0.058,0.0867 -0.0581,0.2024 -0.0294,0.3471c0.0287,0.1447 0.0864,0.2894 0.1729,0.492l0.029,0c0.0001,-0.1157 0.0002,-0.2025 0.0293,-0.2892c0.029,-0.0868 0.1158,-0.1445 0.2027,-0.2023c0.1447,-0.0866 0.3183,-0.0863 0.4918,-0.0283c0.1734,0.087 0.3179,0.2318 0.4622,0.4634c0.1443,0.2605 0.2019,0.492 0.1727,0.6944c-0.0292,0.2025 -0.1451,0.3759 -0.3477,0.4913c-0.2026,0.1155 -0.4341,0.1152 -0.6364,0.0282c-0.2313,-0.116 -0.4335,-0.3477 -0.6355,-0.695zm1.0409,0.2905c0.0579,-0.0288 0.087,-0.1156 0.0871,-0.2023c0.0001,-0.0868 -0.0576,-0.2026 -0.1442,-0.3763c-0.0577,-0.1157 -0.1444,-0.2026 -0.2311,-0.2606c-0.0867,-0.0579 -0.1445,-0.058 -0.2314,-0.0003c-0.0579,0.0289 -0.0869,0.0867 -0.087,0.2024c-0.0001,0.0868 0.0287,0.1736 0.0864,0.2894c0.0866,0.1447 0.1732,0.2605 0.2599,0.3185c0.1157,0.058 0.2025,0.0581 0.2603,0.0292z"/>
  <path id="svg_270" fill="white" d="m67.1677,21.4579c0.2598,0.4342 0.3751,0.7814 0.3748,1.0128c-0.0003,0.2604 -0.1162,0.4338 -0.3189,0.5782c-0.2316,0.1443 -0.463,0.144 -0.6653,-0.0009c-0.2023,-0.1448 -0.4334,-0.4055 -0.6932,-0.8397c-0.2598,-0.4342 -0.375,-0.7814 -0.3747,-1.0128c0.0003,-0.2604 0.1162,-0.4338 0.3189,-0.5782c0.2315,-0.1443 0.434,-0.144 0.6652,0.0009c0.2313,0.116 0.4624,0.4055 0.6932,0.8397zm-0.8394,0.4907c0.2021,0.3184 0.3464,0.55 0.4331,0.6369c0.0866,0.0869 0.1734,0.1159 0.2602,0.0871c0.0579,-0.0289 0.0869,-0.0867 0.087,-0.1445c0,-0.0579 -0.0288,-0.1736 -0.0865,-0.2894c-0.0577,-0.1158 -0.1442,-0.2894 -0.2886,-0.521c-0.2021,-0.3185 -0.3175,-0.55 -0.4331,-0.6369c-0.0866,-0.1158 -0.1734,-0.1159 -0.2602,-0.0871c-0.0868,0.0577 -0.087,0.1445 -0.0582,0.2602c0.0288,0.1447 0.1442,0.3762 0.3463,0.6947z"/>
  <path id="svg_271" fill="white" d="m54.5164,29.7154c0.1448,-0.1444 0.3184,-0.1731 0.5208,-0.144c0.1735,0.0292 0.3469,0.1451 0.5202,0.3478c0.2022,0.2317 0.2887,0.4632 0.2595,0.6656c-0.0002,0.2314 -0.1162,0.4338 -0.3189,0.6071c-0.1737,0.1444 -0.3474,0.2309 -0.521,0.2596l-0.3177,-0.3764c0.0868,0.0001 0.1736,-0.0287 0.2604,-0.0575c0.0868,-0.0288 0.1737,-0.0866 0.2605,-0.1443c0.2027,-0.1733 0.203,-0.3758 0.0008,-0.6075c-0.1733,-0.2316 -0.3757,-0.2608 -0.5784,-0.0874c-0.0869,0.0577 -0.1448,0.1444 -0.2028,0.26l-0.2025,-0.0002l-0.8086,-1.1002l0.8976,-0.751l0.2889,0.3475l-0.5502,0.4621l0.3465,0.4633c0.029,-0.0289 0.0869,-0.0867 0.1449,-0.1445z"/>
  <path id="svg_272" fill="white" d="m56.6587,28.3875c0.3177,0.3765 0.4908,0.6949 0.5484,0.9263c0.0576,0.2315 -0.0295,0.4628 -0.2322,0.6361c-0.2027,0.1733 -0.4052,0.202 -0.6365,0.1149c-0.2313,-0.087 -0.4913,-0.3187 -0.809,-0.7241c-0.3177,-0.3764 -0.4909,-0.6948 -0.5484,-0.9552c-0.0576,-0.2604 0.0295,-0.4628 0.2322,-0.6361c0.2026,-0.1733 0.4052,-0.202 0.6365,-0.1149c0.2023,0.1159 0.4623,0.3477 0.809,0.753zm-0.7818,0.6354c0.2599,0.2896 0.4333,0.4923 0.52,0.5503c0.1156,0.0869 0.2023,0.087 0.2603,0.0292c0.0578,-0.0288 0.0579,-0.0867 0.058,-0.1735c0.0001,-0.0578 -0.0577,-0.1447 -0.1154,-0.2604c-0.0866,-0.1158 -0.2021,-0.2606 -0.3754,-0.4633c-0.2311,-0.2896 -0.4333,-0.4634 -0.5489,-0.5503c-0.1156,-0.0869 -0.2024,-0.087 -0.2893,-0.0293c-0.0579,0.0578 -0.0869,0.1446 -0.0003,0.2893c0.1155,0.1158 0.2599,0.3185 0.491,0.608z"/>
  <path id="svg_273" fill="white" d="m47.2438,38.7015l-0.1738,0.2023l0.4334,0.3765l-0.3186,0.3757l-0.4335,-0.3766l-0.5793,0.6935l-0.3179,-0.2607l-0.8077,-1.7655l0.3476,-0.4045l1.3292,1.1297l0.1738,-0.2022l0.3468,0.2318zm-0.8103,0.3172l-0.4334,-0.3766l-0.2023,-0.1738l-0.1733,-0.1738c0.0866,0.1158 0.1443,0.2316 0.202,0.3474l0.3173,0.6946l0.2897,-0.3178z"/>
  <path id="svg_274" fill="white" d="m47.738,36.9087c0.3756,0.3186 0.6067,0.6082 0.6931,0.8397c0.0865,0.2315 0.0573,0.4629 -0.1165,0.6652c-0.1738,0.2022 -0.3764,0.2887 -0.6077,0.2306c-0.2313,-0.0581 -0.5493,-0.2321 -0.9249,-0.5507c-0.3757,-0.3187 -0.6067,-0.6082 -0.6932,-0.8397c-0.0865,-0.2315 -0.0573,-0.4629 0.1165,-0.6363c0.1738,-0.2022 0.3764,-0.2887 0.6077,-0.2306c0.2314,0.0003 0.5493,0.2032 0.925,0.5218zm-0.6373,0.7513c0.2889,0.2607 0.4912,0.4056 0.6358,0.4636c0.1156,0.058 0.2024,0.0581 0.2603,-0.0286c0.029,-0.0578 0.058,-0.1157 0.0292,-0.1735c-0.0289,-0.0579 -0.0866,-0.1448 -0.1733,-0.2317c-0.0867,-0.0868 -0.2311,-0.2317 -0.4334,-0.4055c-0.289,-0.2317 -0.4912,-0.4055 -0.6358,-0.4636c-0.1156,-0.058 -0.2313,-0.0581 -0.2892,-0.0003c-0.058,0.0578 -0.0581,0.1735 0.0285,0.2893c0.0867,0.1158 0.2889,0.3185 0.5779,0.5503z"/>
  <path id="svg_275" fill="white" d="m38.8448,48.0642c0.1446,0.0869 0.2601,0.2028 0.3178,0.3186c0.0577,0.1447 0.0575,0.2893 0.0284,0.4339c0.1159,-0.1445 0.2317,-0.2022 0.3763,-0.231c0.1447,-0.0287 0.2893,0.0004 0.4627,0.0874c0.2313,0.116 0.3468,0.2897 0.4044,0.4922c0.0576,0.2026 -0.0005,0.4339 -0.1165,0.6652c-0.116,0.2023 -0.2608,0.3757 -0.4056,0.4623l-0.4046,-0.2319c0.0868,-0.0578 0.1737,-0.1155 0.2316,-0.1733c0.0868,-0.0577 0.1448,-0.1444 0.1738,-0.2312c0.087,-0.1156 0.0871,-0.2313 0.0872,-0.347c-0.0288,-0.0868 -0.0865,-0.1736 -0.231,-0.2606c-0.2313,-0.1449 -0.4339,-0.0584 -0.6078,0.2307l-0.0869,0.1445l-0.318,-0.2029l0.087,-0.1156c0.0869,-0.1156 0.087,-0.2313 0.0872,-0.347c-0.0288,-0.1157 -0.0866,-0.2026 -0.2022,-0.2606c-0.0867,-0.0579 -0.1734,-0.087 -0.2603,-0.0581c-0.0868,0.0288 -0.1447,0.0576 -0.1737,0.1444c-0.058,0.1156 -0.0871,0.2602 -0.0584,0.4338l-0.405,0.0284c-0.0575,-0.2604 -0.0283,-0.4918 0.1167,-0.7519c0.1159,-0.2024 0.2607,-0.3179 0.4343,-0.3755c0.1157,0.0291 0.2892,0.0582 0.4626,0.1452z"/>
  <path id="svg_276" fill="white" d="m40.4367,46.8503c0.4336,0.2609 0.7225,0.4927 0.838,0.6953c0.1444,0.2026 0.1441,0.4341 -0.0008,0.6653c-0.1449,0.2312 -0.3186,0.3467 -0.5789,0.3175c-0.2604,-0.0004 -0.5784,-0.1454 -1.012,-0.3773c-0.4335,-0.2609 -0.6936,-0.4926 -0.838,-0.6953c-0.1443,-0.2026 -0.144,-0.4341 0.0009,-0.6653c0.1449,-0.2312 0.3186,-0.3467 0.5789,-0.3174c0.2314,0.0002 0.5783,0.1164 1.0119,0.3772zm-0.4928,0.8383c0.318,0.2028 0.5492,0.3188 0.6938,0.3479c0.1446,0.0291 0.2314,0.0293 0.2604,-0.0575c0.029,-0.0578 0.0291,-0.1157 0.0002,-0.1735c-0.0288,-0.0579 -0.1155,-0.1159 -0.2022,-0.2028c-0.1156,-0.0869 -0.289,-0.1739 -0.5203,-0.3188c-0.3179,-0.2029 -0.5492,-0.2899 -0.6937,-0.348c-0.1446,-0.0291 -0.2314,-0.0292 -0.2605,0.0576c-0.0579,0.0867 -0.0291,0.1735 0.0865,0.2604c0.0866,0.1158 0.3179,0.2607 0.6358,0.4347z"/>
  <path id="svg_277" fill="white" d="m35.6485,60.0645l-0.4935,1.3878l-0.347,-0.1161l-0.4908,-0.6948c-0.1444,-0.2027 -0.2311,-0.3185 -0.2888,-0.4053c-0.0577,-0.0869 -0.1445,-0.1448 -0.2022,-0.2028c-0.0578,-0.0579 -0.1446,-0.0869 -0.2313,-0.1159c-0.0867,-0.0291 -0.1735,-0.0292 -0.2314,-0.0293c-0.0579,0.0289 -0.1158,0.0867 -0.1448,0.1445c-0.029,0.0578 -0.029,0.1157 -0.0002,0.2025c-0.0001,0.0578 0.0576,0.1447 0.1154,0.2604l-0.3763,0.1731c-0.0866,-0.1736 -0.1442,-0.3183 -0.173,-0.4341c0.0001,-0.1157 0.0003,-0.2603 0.0583,-0.3759c0.087,-0.2024 0.2029,-0.3469 0.3477,-0.4335c0.1736,-0.0576 0.3471,-0.0574 0.5785,0.0007c0.0867,0.0291 0.1734,0.087 0.2601,0.145c0.0867,0.0579 0.1445,0.1159 0.2312,0.2027c0.0866,0.0869 0.1444,0.1738 0.2311,0.2607c0.0577,0.0868 0.2309,0.3474 0.4618,0.7526l0.3193,-0.8385l0.3759,0.1162z"/>
  <path id="svg_278" fill="white" d="m34.9852,57.8944c0.4626,0.1741 0.7806,0.348 0.9539,0.5507c0.1733,0.1738 0.202,0.4052 0.1149,0.6655c-0.0871,0.2602 -0.2608,0.3757 -0.5212,0.4332c-0.2604,0.0286 -0.6074,-0.0297 -1.07,-0.2038c-0.4626,-0.1741 -0.7806,-0.3481 -0.9539,-0.5508c-0.1733,-0.2027 -0.202,-0.4052 -0.1149,-0.6365c0.0871,-0.2602 0.2608,-0.3757 0.4923,-0.4333c0.2604,-0.0575 0.6074,0.0008 1.0989,0.175zm-0.3482,0.9251c0.3469,0.1451 0.6072,0.2033 0.7518,0.2324c0.1446,0.0002 0.2314,-0.0287 0.2604,-0.1154c0.029,-0.0578 0.0002,-0.1157 -0.0287,-0.1736c-0.0288,-0.0579 -0.1155,-0.1158 -0.2312,-0.1738c-0.1156,-0.058 -0.318,-0.145 -0.5493,-0.2321c-0.3469,-0.1161 -0.6072,-0.2032 -0.7518,-0.2034c-0.1446,-0.0002 -0.2314,0.0286 -0.2605,0.1154c-0.029,0.0867 -0.0002,0.1735 0.1154,0.2604c0.1156,0.058 0.3469,0.174 0.6939,0.2901z"/>
  <path id="svg_279" fill="white" d="m32.5092,72.0076l-0.0874,0.4916l-1.5906,-0.2912c-0.1735,-0.0292 -0.3759,-0.0873 -0.5783,-0.1454c0,0 0.0289,0.0579 0.0866,0.1158c0.0578,0.058 0.1444,0.2027 0.2888,0.3764l-0.3474,0.231l-0.5485,-0.8395l0.0873,-0.4338l2.6895,0.4951z"/>
  <path id="svg_280" fill="white" d="m31.5282,69.7501c0.4917,0.0874 0.8386,0.2035 1.012,0.3773c0.2023,0.1448 0.2598,0.3763 0.2306,0.6366c-0.0582,0.2603 -0.203,0.4336 -0.4345,0.4912c-0.2315,0.0865 -0.6075,0.0571 -1.0991,-0.0303c-0.4917,-0.0874 -0.8386,-0.2035 -1.0409,-0.3773c-0.2023,-0.1449 -0.2888,-0.3764 -0.2307,-0.6077c0.0582,-0.2603 0.1741,-0.4337 0.4345,-0.4912c0.2605,-0.0865 0.6365,-0.086 1.1281,0.0014zm-0.1747,0.9543c0.376,0.0583 0.6363,0.0876 0.7809,0.0878c0.1446,0.0001 0.2025,-0.0576 0.2316,-0.1444c0,-0.0578 0.0001,-0.1157 -0.0577,-0.1447c-0.0578,-0.0579 -0.1445,-0.0869 -0.2602,-0.116c-0.1157,-0.0291 -0.3181,-0.0872 -0.5784,-0.1164c-0.3759,-0.0583 -0.6362,-0.0876 -0.7808,-0.0878c-0.1447,-0.0002 -0.2315,0.0576 -0.2316,0.1444c-0.0291,0.0867 0.0287,0.1736 0.1732,0.2316c0.0868,0.029 0.347,0.0872 0.723,0.1455z"/>
  <path id="svg_281" fill="white" d="m30.1816,82.823c0.4918,0.0006 0.8388,0.0589 1.0701,0.1749c0.2312,0.116 0.3178,0.3186 0.3174,0.5789c-0.0003,0.2603 -0.1162,0.4627 -0.3478,0.5781c-0.2315,0.1154 -0.5787,0.1728 -1.0704,0.1722c-0.4918,-0.0006 -0.8388,-0.0589 -1.0701,-0.1749c-0.2312,-0.116 -0.3467,-0.3186 -0.3464,-0.5789c0.0003,-0.2603 0.1163,-0.4627 0.3189,-0.5781c0.2605,-0.1154 0.6077,-0.1728 1.1283,-0.1722zm-0.0012,0.9835c0.3761,0.0005 0.6364,-0.0282 0.7811,-0.0569c0.1447,-0.0288 0.2026,-0.0865 0.2027,-0.1733c0.0001,-0.0579 -0.0288,-0.1157 -0.0866,-0.1447c-0.0578,-0.029 -0.1446,-0.0581 -0.2892,-0.0872c-0.1446,-0.0291 -0.347,-0.0293 -0.6074,-0.0297c-0.376,-0.0004 -0.6364,0.0282 -0.781,0.0569c-0.1447,0.0288 -0.2026,0.0866 -0.2028,0.2023c-0.0001,0.0867 0.0577,0.1447 0.2023,0.1738c0.1446,0.0291 0.4049,0.0583 0.7809,0.0588z"/>
  <path id="svg_282" fill="white" d="m111.342,18.9671c0.202,0.0291 0.376,0.1161 0.462,0.2609c0.116,0.1447 0.144,0.3183 0.115,0.5208c-0.029,0.1156 -0.058,0.2313 -0.145,0.318c-0.087,0.0866 -0.203,0.1733 -0.347,0.231c0.144,0.1448 0.231,0.2606 0.26,0.4052c0.057,0.1158 0.057,0.2604 0.028,0.405c-0.029,0.2314 -0.145,0.3759 -0.29,0.4914c-0.145,0.1155 -0.347,0.1442 -0.578,0.115c-0.232,-0.0292 -0.405,-0.1451 -0.521,-0.2899c-0.115,-0.1448 -0.144,-0.3473 -0.115,-0.5787c0.029,-0.1446 0.087,-0.2891 0.174,-0.4047c0.087,-0.1156 0.203,-0.2022 0.348,-0.2599c-0.116,-0.1159 -0.174,-0.2316 -0.231,-0.3474c-0.029,-0.1157 -0.029,-0.2314 -0.029,-0.3761c0.029,-0.2024 0.116,-0.3469 0.29,-0.4624c0.174,-0.0287 0.376,-0.0574 0.579,-0.0282zm-0.639,1.9951c-0.029,0.1156 0,0.2024 0.028,0.2603c0.029,0.0579 0.087,0.1158 0.174,0.1159c0.087,0.0291 0.173,0.0002 0.231,-0.0575c0.058,-0.0578 0.087,-0.1446 0.116,-0.2602c0,-0.0868 0.001,-0.1446 -0.028,-0.2315c-0.029,-0.0868 -0.087,-0.1736 -0.174,-0.2605l-0.028,-0.029c-0.087,0.0578 -0.174,0.1155 -0.232,0.1733c-0.029,0.0867 -0.058,0.1735 -0.087,0.2892zm0.551,-1.5903c-0.057,-0.0001 -0.115,-0.0001 -0.173,0.0577c-0.058,0.0577 -0.087,0.1155 -0.087,0.2023c0,0.0868 0,0.1447 -0.001,0.2314c0.029,0.0579 0.058,0.1447 0.145,0.2316c0.087,-0.0577 0.145,-0.1155 0.202,-0.1444c0.029,-0.0578 0.058,-0.1156 0.087,-0.2023c0.03,-0.2314 -0.028,-0.3472 -0.173,-0.3763z"/>
  <path id="svg_283" fill="white" d="m113.567,20.7921c-0.088,0.4916 -0.204,0.8386 -0.377,1.0119c-0.145,0.2023 -0.377,0.2599 -0.637,0.2306c-0.26,-0.0581 -0.434,-0.203 -0.491,-0.4345c-0.087,-0.2315 -0.057,-0.6075 0.03,-1.0991c0.087,-0.4916 0.203,-0.8386 0.377,-1.0409c0.145,-0.2023 0.377,-0.2888 0.608,-0.2306c0.26,0.0582 0.434,0.1741 0.491,0.4345c0.087,0.2604 0.086,0.6364 -0.001,1.1281zm-0.983,-0.1748c-0.059,0.376 -0.088,0.6363 -0.088,0.7809c0,0.1446 0.057,0.2025 0.144,0.2316c0.058,0.0001 0.116,0.0001 0.145,-0.0577c0.058,-0.0578 0.087,-0.1445 0.116,-0.2602c0.029,-0.1157 0.087,-0.3181 0.116,-0.5784c0.059,-0.3759 0.088,-0.6362 0.088,-0.7808c0,-0.1447 -0.058,-0.2315 -0.144,-0.2316c-0.087,-0.0291 -0.174,0.0287 -0.232,0.1732c0,0.1157 -0.058,0.3471 -0.145,0.723z"/>
  <path id="svg_284" fill="white" d="m120.91,24.1853l1.506,-1.8783l-0.896,-0.3193l0.145,-0.4337l1.388,0.4935l-0.116,0.318l-1.536,1.994l-0.491,-0.1742z"/>
  <path id="svg_285" fill="white" d="m124.265,23.958c-0.174,0.4626 -0.348,0.7806 -0.551,0.9539c-0.173,0.1733 -0.405,0.202 -0.665,0.1149c-0.26,-0.0871 -0.376,-0.2608 -0.433,-0.5212c-0.029,-0.2604 0.029,-0.6074 0.204,-1.07c0.174,-0.4626 0.348,-0.7806 0.55,-0.9539c0.203,-0.1733 0.406,-0.202 0.637,-0.1149c0.26,0.0871 0.376,0.2608 0.433,0.4923c0.087,0.2604 -0.001,0.6074 -0.175,1.0989zm-0.925,-0.3482c-0.145,0.3469 -0.203,0.6072 -0.232,0.7518c-0.001,0.1446 0.028,0.2314 0.115,0.2604c0.058,0.029 0.116,0.0002 0.174,-0.0287c0.057,-0.0288 0.115,-0.1155 0.173,-0.2312c0.058,-0.1156 0.145,-0.318 0.233,-0.5493c0.116,-0.3469 0.203,-0.6072 0.203,-0.7518c0,-0.1446 -0.029,-0.2314 -0.115,-0.2605c-0.087,-0.029 -0.174,-0.0002 -0.261,0.1154c-0.058,0.1157 -0.145,0.3469 -0.29,0.6939z"/>
  <path id="svg_286" fill="white" d="m131.348,27.4671c0.29,-0.4913 0.551,-0.7803 0.84,-0.9246c0.289,-0.1442 0.579,-0.1149 0.868,0.059c0.058,0.029 0.086,0.0579 0.144,0.0869c0.058,0.029 0.087,0.058 0.087,0.0869l-0.203,0.3758c-0.058,-0.0579 -0.144,-0.1159 -0.202,-0.1449c-0.116,-0.058 -0.232,-0.116 -0.347,-0.0872c-0.116,-0.0001 -0.203,0.0576 -0.319,0.1442c-0.115,0.0867 -0.202,0.2312 -0.347,0.4046l0.029,0c0.087,-0.0577 0.173,-0.1155 0.26,-0.1154c0.087,0.0001 0.174,0.0002 0.26,0.0582c0.145,0.087 0.232,0.2317 0.26,0.4053c0,0.1735 -0.058,0.3759 -0.174,0.6361c-0.145,0.2602 -0.319,0.4046 -0.521,0.4911c-0.203,0.0866 -0.405,0.0574 -0.608,-0.0586c-0.202,-0.1159 -0.318,-0.2896 -0.317,-0.55c0,-0.2314 0.087,-0.5205 0.29,-0.8674zm0.259,1.0417c0.058,0.029 0.145,0.0291 0.232,-0.0287c0.086,-0.0577 0.173,-0.1444 0.26,-0.2889c0.058,-0.1156 0.116,-0.2313 0.116,-0.318c0,-0.0868 -0.028,-0.1447 -0.086,-0.2026c-0.058,-0.029 -0.145,-0.0291 -0.203,-0.0003c-0.086,0.0288 -0.144,0.1155 -0.202,0.2023c-0.087,0.1445 -0.145,0.289 -0.146,0.4047c-0.058,0.1157 -0.029,0.1736 0.029,0.2315z"/>
  <path id="svg_287" fill="white" d="m134.268,28.917c-0.261,0.4335 -0.493,0.7225 -0.695,0.838c-0.203,0.1443 -0.434,0.1441 -0.666,-0.0009c-0.231,-0.1449 -0.346,-0.3186 -0.317,-0.5789c0,-0.2603 0.145,-0.5783 0.377,-1.0119c0.261,-0.4336 0.493,-0.6936 0.695,-0.838c0.203,-0.1444 0.434,-0.1441 0.666,0.0008c0.231,0.1449 0.346,0.3186 0.317,0.5789c0,0.2314 -0.116,0.5784 -0.377,1.012zm-0.838,-0.4928c-0.203,0.3179 -0.319,0.5492 -0.348,0.6938c-0.029,0.1446 -0.03,0.2314 0.057,0.2604c0.058,0.029 0.116,0.0291 0.174,0.0002c0.058,-0.0288 0.116,-0.1155 0.202,-0.2022c0.087,-0.1156 0.174,-0.2891 0.319,-0.5203c0.203,-0.3179 0.29,-0.5492 0.348,-0.6938c0.029,-0.1446 0.029,-0.2313 -0.057,-0.2604c-0.087,-0.0579 -0.174,-0.0291 -0.261,0.0865c-0.116,0.0866 -0.26,0.3178 -0.434,0.6358z"/>
  <path id="svg_288" fill="white" d="m141.233,33.554c0.144,0.1448 0.231,0.2895 0.231,0.492c0,0.1735 -0.087,0.3759 -0.232,0.5782c-0.203,0.2312 -0.406,0.3466 -0.608,0.3753c-0.232,0.0286 -0.434,-0.0295 -0.636,-0.2033c-0.174,-0.1448 -0.289,-0.3185 -0.347,-0.4921l0.319,-0.3757c0.029,0.0868 0.057,0.1736 0.115,0.2605c0.058,0.0868 0.116,0.1737 0.173,0.2316c0.203,0.1738 0.405,0.1451 0.608,-0.086c0.174,-0.2312 0.174,-0.4048 -0.028,-0.5786c-0.087,-0.0579 -0.174,-0.1159 -0.289,-0.1739l-0.058,-0.2025l0.956,-0.9823l0.896,0.7531l-0.29,0.3468l-0.549,-0.4635l-0.405,0.4334c0,0 0.086,0.029 0.144,0.087z"/>
  <path id="svg_289" fill="white" d="m142.908,35.4071c-0.318,0.3756 -0.608,0.6066 -0.839,0.6931c-0.232,0.0865 -0.463,0.0573 -0.666,-0.1165c-0.202,-0.1738 -0.288,-0.3764 -0.23,-0.6077c0.058,-0.2313 0.232,-0.5493 0.55,-0.925c0.319,-0.3756 0.609,-0.6066 0.84,-0.6931c0.232,-0.0865 0.463,-0.0573 0.636,0.1165c0.203,0.1738 0.289,0.3763 0.231,0.6077c0,0.2314 -0.203,0.5493 -0.522,0.925zm-0.751,-0.6373c-0.261,0.2889 -0.406,0.4912 -0.464,0.6358c-0.058,0.1156 -0.058,0.2024 0.029,0.2603c0.058,0.029 0.116,0.058 0.174,0.0292c0.057,-0.0289 0.144,-0.0866 0.231,-0.1733c0.087,-0.0867 0.232,-0.2311 0.406,-0.4334c0.231,-0.289 0.405,-0.4912 0.463,-0.6358c0.058,-0.1156 0.058,-0.2313 0.001,-0.2892c-0.058,-0.058 -0.174,-0.0581 -0.29,0.0285c-0.144,0.1156 -0.318,0.2889 -0.55,0.5779z"/>
  <path id="svg_290" fill="white" d="m149.264,42.8491l-0.174,-0.2027l-0.434,0.3755l-0.318,-0.3764l0.435,-0.3755l-0.578,-0.6949l0.318,-0.26l1.881,-0.4894l0.347,0.4054l-1.332,1.1265l0.173,0.2027l-0.318,0.2888zm-0.173,-0.868l0.434,-0.3755l0.203,-0.1443l0.203,-0.1444c-0.145,0.0577 -0.261,0.0864 -0.376,0.1152l-0.753,0.2016l0.289,0.3474z"/>
  <path id="svg_291" fill="white" d="m150.969,43.6323c-0.376,0.3177 -0.695,0.4909 -0.926,0.5484c-0.232,0.0576 -0.463,-0.0295 -0.636,-0.2322c-0.174,-0.2026 -0.202,-0.4052 -0.115,-0.6365c0.087,-0.2313 0.319,-0.4913 0.724,-0.809c0.376,-0.3177 0.695,-0.4909 0.955,-0.5484c0.261,-0.0575 0.463,0.0295 0.636,0.2322c0.174,0.2027 0.202,0.4052 0.115,0.6365c-0.145,0.2023 -0.376,0.4913 -0.753,0.809zm-0.635,-0.7529c-0.29,0.26 -0.493,0.4333 -0.551,0.52c-0.087,0.1156 -0.087,0.2024 -0.029,0.2603c0.029,0.0579 0.087,0.058 0.174,0.0581c0.057,0.0001 0.144,-0.0577 0.26,-0.1154c0.116,-0.0866 0.261,-0.2022 0.463,-0.3755c0.29,-0.231 0.464,-0.4333 0.551,-0.5489c0.087,-0.1156 0.087,-0.2023 0.029,-0.2892c-0.058,-0.0579 -0.145,-0.0869 -0.289,-0.0004c-0.116,0.0867 -0.319,0.2311 -0.608,0.491z"/>
  <path id="svg_292" fill="white" d="m156.861,50.929c-0.145,0.0866 -0.289,0.1154 -0.434,0.1152c-0.145,-0.0002 -0.26,-0.0871 -0.376,-0.2029c0.058,0.1736 0.058,0.3182 0.029,0.4339c-0.058,0.1446 -0.145,0.2601 -0.319,0.3467c-0.231,0.1154 -0.434,0.1441 -0.636,0.086c-0.203,-0.0581 -0.376,-0.2029 -0.521,-0.4345c-0.115,-0.2026 -0.173,-0.4052 -0.201,-0.5788l0.405,-0.2309c0,0.0868 0,0.2025 0.029,0.2893c0.028,0.0868 0.057,0.1736 0.086,0.2604c0.087,0.1158 0.144,0.2027 0.26,0.2318c0.087,0.029 0.203,0.0002 0.318,-0.0575c0.232,-0.1443 0.261,-0.3468 0.117,-0.6362l-0.087,-0.1448l0.319,-0.202l0.086,0.1158c0.087,0.1158 0.174,0.2027 0.26,0.2317c0.087,0.029 0.203,0.0292 0.319,-0.0575c0.086,-0.0577 0.144,-0.1155 0.173,-0.2022c0.029,-0.0578 0.001,-0.1447 -0.028,-0.2315c-0.058,-0.1157 -0.203,-0.2027 -0.347,-0.2607l0.174,-0.3759c0.26,0.0582 0.462,0.232 0.578,0.4636c0.115,0.2026 0.144,0.3762 0.115,0.5497c-0.029,0.2603 -0.145,0.4048 -0.319,0.4913z"/>
  <path id="svg_293" fill="white" d="m157.148,52.9254c-0.435,0.2598 -0.782,0.3751 -1.013,0.3748c-0.261,-0.0003 -0.434,-0.1163 -0.578,-0.3189c-0.145,-0.2316 -0.145,-0.463 0,-0.6653c0.145,-0.2023 0.406,-0.4334 0.84,-0.6932c0.434,-0.2598 0.782,-0.3751 1.013,-0.3748c0.26,0.0003 0.434,0.1163 0.578,0.3189c0.144,0.2316 0.144,0.4341 -0.001,0.6653c-0.145,0.2023 -0.405,0.4334 -0.839,0.6932zm-0.52,-0.8395c-0.319,0.2021 -0.55,0.3464 -0.637,0.4331c-0.087,0.0867 -0.116,0.1734 -0.087,0.2602c0.029,0.0579 0.087,0.0869 0.144,0.087c0.058,0.0001 0.174,-0.0287 0.29,-0.0864c0.116,-0.0577 0.289,-0.1443 0.521,-0.2886c0.318,-0.2021 0.55,-0.3176 0.637,-0.4331c0.116,-0.0867 0.116,-0.1735 0.087,-0.2603c-0.058,-0.0868 -0.145,-0.0869 -0.26,-0.0581c-0.116,0.0287 -0.348,0.1442 -0.695,0.3462z"/>
  <path id="svg_294" fill="white" d="m159.711,61.9246l-0.49,-1.389l0.347,-0.1153l0.81,0.2324c0.231,0.0581 0.376,0.0872 0.492,0.1163c0.115,0.0291 0.202,0.0292 0.289,0.0004c0.087,0.0001 0.173,-0.0288 0.26,-0.0576c0.087,-0.0288 0.174,-0.0865 0.203,-0.1443c0.029,-0.0579 0.029,-0.1157 0,-0.2025c-0.029,-0.0579 -0.058,-0.1158 -0.115,-0.1448c-0.058,-0.029 -0.145,-0.087 -0.26,-0.1449l0.174,-0.3759c0.173,0.0581 0.318,0.1451 0.404,0.2319c0.087,0.0869 0.145,0.2027 0.202,0.3185c0.087,0.2026 0.087,0.405 0,0.5496c-0.087,0.1734 -0.232,0.2889 -0.435,0.3465c-0.087,0.0289 -0.202,0.0576 -0.289,0.0575c-0.087,-0.0001 -0.203,-0.0002 -0.289,-0.0003c-0.116,-0.0002 -0.203,-0.0292 -0.347,-0.0583c-0.116,-0.0291 -0.405,-0.1162 -0.839,-0.2614l0.317,0.8393l-0.434,0.2019z"/>
  <path id="svg_295" fill="white" d="m161.59,63.1707c-0.463,0.1729 -0.81,0.2304 -1.071,0.2011c-0.26,-0.0292 -0.404,-0.174 -0.52,-0.4345c-0.086,-0.2605 -0.057,-0.4629 0.117,-0.6362c0.174,-0.1734 0.492,-0.3465 0.955,-0.5195c0.463,-0.173 0.81,-0.2304 1.07,-0.2012c0.261,0.0293 0.434,0.1741 0.521,0.4346c0.086,0.2604 0.057,0.4628 -0.117,0.6362c-0.145,0.1444 -0.463,0.3465 -0.955,0.5195zm-0.317,-0.955c-0.347,0.1442 -0.608,0.2307 -0.724,0.3173c-0.115,0.0866 -0.144,0.1445 -0.116,0.2313c0.029,0.0579 0.058,0.0868 0.145,0.1159c0.058,0 0.173,0.0002 0.289,-0.0286c0.116,-0.0288 0.318,-0.0864 0.579,-0.1729c0.347,-0.1152 0.579,-0.2306 0.695,-0.3173c0.115,-0.0866 0.173,-0.1733 0.116,-0.2602c-0.029,-0.0868 -0.116,-0.1158 -0.261,-0.116c-0.115,0.0577 -0.376,0.1152 -0.723,0.2305z"/>
  <path id="svg_296" fill="white" d="m162.533,72.226l-0.086,-0.4919l1.591,-0.2873c0.174,-0.0287 0.376,-0.0574 0.608,-0.086c0,0 -0.058,-0.029 -0.116,-0.0869c-0.058,-0.0579 -0.202,-0.1449 -0.404,-0.2608l0.26,-0.3468l0.781,0.6084l0.086,0.434l-2.72,0.5173z"/>
  <path id="svg_297" fill="white" d="m164.238,74.0215c-0.492,0.0861 -0.839,0.0857 -1.099,-0.0014c-0.232,-0.0871 -0.376,-0.2608 -0.434,-0.5212c-0.057,-0.2604 0.03,-0.4628 0.232,-0.6072c0.203,-0.1443 0.55,-0.2596 1.013,-0.3458c0.492,-0.0862 0.839,-0.0858 1.099,0.0013c0.232,0.0871 0.376,0.2608 0.434,0.4923c0.057,0.2604 -0.03,0.4628 -0.232,0.6072c-0.174,0.1444 -0.521,0.2886 -1.013,0.3748zm-0.173,-0.9837c-0.376,0.0574 -0.636,0.1149 -0.752,0.1726c-0.116,0.0577 -0.174,0.1155 -0.174,0.2312c0,0.0578 0.058,0.1158 0.116,0.1158c0.058,0.029 0.173,0.0292 0.289,0.0293c0.145,0.0002 0.318,-0.0285 0.608,-0.086c0.376,-0.0574 0.607,-0.115 0.752,-0.1726c0.116,-0.0577 0.174,-0.1445 0.174,-0.2312c-0.029,-0.0868 -0.087,-0.1448 -0.232,-0.1449c-0.173,-0.0003 -0.405,0.0284 -0.781,0.0858z"/>
  <path id="svg_298" fill="white" d="m164.919,84.349c-0.492,-0.0006 -0.839,-0.0589 -1.07,-0.1749c-0.231,-0.116 -0.318,-0.3186 -0.318,-0.5789c0.001,-0.2603 0.117,-0.4627 0.348,-0.5781c0.232,-0.1154 0.579,-0.1728 1.071,-0.1722c0.491,0.0006 0.838,0.0589 1.07,0.1749c0.231,0.1159 0.346,0.3186 0.346,0.5789c0,0.2603 -0.116,0.4627 -0.319,0.5781c-0.26,0.1154 -0.608,0.1728 -1.128,0.1722zm0.001,-1.0124c-0.376,-0.0005 -0.636,0.0281 -0.781,0.0569c-0.145,0.0287 -0.203,0.0865 -0.203,0.1733c0,0.0578 0.029,0.1157 0.087,0.1447c0.058,0.029 0.144,0.058 0.289,0.0871c0.145,0.0292 0.347,0.0294 0.607,0.0297c0.376,0.0005 0.637,-0.0281 0.782,-0.0569c0.144,-0.0287 0.202,-0.0865 0.202,-0.2022c0,-0.0868 -0.057,-0.1447 -0.202,-0.1738c-0.145,-0.0291 -0.405,-0.0583 -0.781,-0.0588z"/>
  <path id="svg_299" fill="white" d="m38.2497,84.7423l-0.0006,0.4917l-1.5909,-0.0019c-0.1735,-0.0002 -0.376,-0.0005 -0.6074,-0.0297c0,0 0.0578,0.029 0.1156,0.0869c0.0578,0.0579 0.1734,0.1738 0.3467,0.3186l-0.3185,0.2889l-0.6644,-0.724l0.0006,-0.4628l2.719,0.0034l-0.0001,0.0289z"/>
  <path id="svg_300" fill="white" d="m35.4746,83.4371c0.0003,-0.2025 0.0583,-0.376 0.1742,-0.5205c0.1159,-0.1445 0.2895,-0.2021 0.492,-0.2019c0.1157,0.0002 0.2314,0.0293 0.347,0.0872c0.1156,0.058 0.2023,0.1739 0.2889,0.2897c0.1159,-0.1735 0.2317,-0.2601 0.3475,-0.3467c0.1158,-0.0577 0.2605,-0.0865 0.3762,-0.0863c0.2314,0.0003 0.4049,0.0583 0.5493,0.2031c0.1445,0.1448 0.2021,0.3185 0.2018,0.5499c-0.0003,0.2314 -0.0584,0.4338 -0.2031,0.5493c-0.1159,0.1445 -0.3185,0.2021 -0.5499,0.2018c-0.1446,-0.0002 -0.2892,-0.0293 -0.4048,-0.0873c-0.1157,-0.058 -0.2312,-0.1738 -0.3178,-0.3186c-0.1159,0.1156 -0.2028,0.2312 -0.3186,0.2889c-0.1157,0.0577 -0.2315,0.0865 -0.3472,0.0864c-0.2024,-0.0003 -0.3759,-0.0584 -0.4915,-0.2031c-0.0866,-0.1158 -0.1442,-0.2895 -0.144,-0.4919zm0.405,0.0005c-0.0001,0.0578 0.0288,0.1157 0.0865,0.1736c0.0579,0.029 0.1157,0.058 0.2314,0.0582c0.0868,0.0001 0.1446,-0.0288 0.2025,-0.0576c0.0579,-0.0289 0.1158,-0.0867 0.2027,-0.1734c-0.0577,-0.0868 -0.1155,-0.1447 -0.2022,-0.1737c-0.0579,-0.029 -0.1446,-0.0581 -0.2314,-0.0582c-0.2025,0.0287 -0.2893,0.0864 -0.2895,0.2311zm1.6484,0.2623c0.1157,0.0002 0.2025,-0.0286 0.2604,-0.0575c0.058,-0.0578 0.0869,-0.1156 0.0871,-0.2024c0.0001,-0.0868 -0.0288,-0.1736 -0.0866,-0.2026c-0.0577,-0.0579 -0.1445,-0.058 -0.2602,-0.0581c-0.0868,-0.0001 -0.1447,0.0287 -0.2315,0.0575c-0.0579,0.0289 -0.1448,0.1156 -0.2317,0.2022l-0.0289,0.0289c0.0577,0.0869 0.1155,0.1448 0.2022,0.1738c0.0867,0.058 0.1735,0.0581 0.2892,0.0582z"/>
  <path id="svg_301" fill="white" d="m36.8662,80.9223c0.4917,0.0006 0.8388,0.0588 1.07,0.1748c0.2313,0.116 0.3178,0.3186 0.3175,0.5789c-0.0003,0.2604 -0.1163,0.4627 -0.3478,0.5781c-0.2316,0.1154 -0.5787,0.1729 -1.0705,0.1723c-0.4917,-0.0007 -0.8387,-0.0589 -1.07,-0.1749c-0.2313,-0.116 -0.3467,-0.3186 -0.3464,-0.579c0.0003,-0.2603 0.1163,-0.4626 0.3189,-0.5781c0.2605,-0.1154 0.6366,-0.1727 1.1283,-0.1721zm-0.0012,0.9834c0.376,0.0005 0.6364,-0.0281 0.7811,-0.0569c0.1446,-0.0287 0.2025,-0.0865 0.2027,-0.1733c0,-0.0578 -0.0288,-0.1157 -0.0866,-0.1447c-0.0579,-0.029 -0.1446,-0.058 -0.2892,-0.0871c-0.1446,-0.0291 -0.3471,-0.0294 -0.6074,-0.0297c-0.376,-0.0005 -0.6364,0.0281 -0.7811,0.0569c-0.1446,0.0287 -0.2026,0.0865 -0.2027,0.2022c-0.0001,0.0868 0.0577,0.1447 0.2023,0.1738c0.1446,0.0291 0.4049,0.0584 0.7809,0.0588z"/>
  <path id="svg_302" fill="white" d="m38.9867,73.8378l-0.0874,0.4916l-1.5905,-0.2912c-0.1736,-0.0291 -0.376,-0.0872 -0.5784,-0.1453c0,0 0.0289,0.0579 0.0867,0.1158c0.0577,0.0579 0.1443,0.2027 0.2888,0.3764l-0.3474,0.231l-0.5486,-0.8396l0.0873,-0.4337l2.6895,0.495z"/>
  <path id="svg_303" fill="white" d="m39.1319,73.1148l-2.1102,-1.1596l-0.1747,0.9254l-0.4337,-0.0873l0.2621,-1.446l0.347,0.0583l2.2259,1.1598l-0.1164,0.5494z"/>
  <path id="svg_304" fill="white" d="m38.3256,69.8453c0.4916,0.0874 0.8386,0.2035 1.0119,0.3773c0.2023,0.1449 0.2599,0.3763 0.2307,0.6366c-0.0582,0.2603 -0.2031,0.4337 -0.4345,0.4912c-0.2316,0.0865 -0.6076,0.0571 -1.0992,-0.0303c-0.4916,-0.0873 -0.8386,-0.2035 -1.0408,-0.3773c-0.2023,-0.1449 -0.2888,-0.3764 -0.2307,-0.6077c0.0582,-0.2603 0.1741,-0.4337 0.4345,-0.4912c0.2604,-0.0865 0.6075,-0.086 1.1281,0.0014zm-0.1747,0.9543c0.3759,0.0583 0.6362,0.0876 0.7809,0.0878c0.1446,0.0001 0.2025,-0.0576 0.2315,-0.1444c0.0001,-0.0578 0.0002,-0.1157 -0.0576,-0.1447c-0.0578,-0.0579 -0.1446,-0.0869 -0.2602,-0.116c-0.1157,-0.0291 -0.3181,-0.0872 -0.5784,-0.1164c-0.376,-0.0583 -0.6363,-0.0876 -0.7809,-0.0878c-0.1446,-0.0001 -0.2315,0.0576 -0.2316,0.1444c-0.029,0.0867 0.0287,0.1736 0.1733,0.2316c0.0867,0.029 0.347,0.0872 0.723,0.1455z"/>
  <path id="svg_305" fill="white" d="m41.6323,63.2249l-0.1742,0.4626l-1.5034,-0.5514c-0.1735,-0.0581 -0.3469,-0.1451 -0.5493,-0.2321c0,0 0.0288,0.0579 0.0866,0.1158c0.0288,0.0868 0.1155,0.2026 0.202,0.4341l-0.3763,0.1731l-0.3749,-0.9261l0.1452,-0.4337l2.5443,0.9577z"/>
  <path id="svg_306" fill="white" d="m40.7076,62.3268c-0.5204,-0.2032 -0.8672,-0.4061 -1.0694,-0.6666c-0.1732,-0.2606 -0.2018,-0.5499 -0.0857,-0.8679c0.029,-0.0578 0.0291,-0.1157 0.058,-0.1446c0.029,-0.0578 0.058,-0.0867 0.058,-0.1156l0.4048,0.1451c-0.058,0.0867 -0.087,0.1445 -0.116,0.2313c-0.058,0.1445 -0.0582,0.2602 -0.0293,0.3471c0.0287,0.1157 0.0865,0.2025 0.2021,0.2895c0.0867,0.0868 0.2601,0.1738 0.4625,0.2609l0,-0.029c-0.0867,-0.0868 -0.1444,-0.1737 -0.1732,-0.2605c-0.0288,-0.0868 -0.0287,-0.1736 0.0293,-0.2892c0.058,-0.1735 0.1739,-0.2891 0.3475,-0.3178c0.1736,-0.0576 0.405,-0.0284 0.6651,0.0876c0.2603,0.0871 0.4626,0.232 0.578,0.4346c0.1155,0.1737 0.1153,0.3762 0.0571,0.6075c-0.087,0.2313 -0.2318,0.3758 -0.4633,0.4044c-0.2315,0.0576 -0.5496,0.0283 -0.9255,-0.1168zm0.984,-0.4327c0.029,-0.0578 0.0002,-0.1446 -0.0576,-0.2026c-0.0577,-0.0579 -0.1733,-0.1448 -0.3468,-0.2029c-0.1446,-0.058 -0.2314,-0.0581 -0.3471,-0.0582c-0.0867,-0.0002 -0.1447,0.0576 -0.1737,0.1444c-0.029,0.0578 -0.0002,0.1446 0.0576,0.2025c0.0578,0.0579 0.1445,0.1159 0.2601,0.1739c0.1735,0.0581 0.3181,0.0872 0.4049,0.0873c0.1157,-0.0288 0.1736,-0.0866 0.2026,-0.1444z"/>
  <path id="svg_307" fill="white" d="m41.6371,59.1753c0.4626,0.1741 0.7805,0.3481 0.9539,0.5218c0.1733,0.1738 0.2019,0.4052 0.1148,0.6655c-0.087,0.2602 -0.2607,0.3757 -0.5211,0.4332c-0.2604,0.0286 -0.6075,-0.0297 -1.0701,-0.2038c-0.4625,-0.1741 -0.7805,-0.3481 -0.9538,-0.5508c-0.1733,-0.2027 -0.202,-0.4052 -0.1149,-0.6365c0.0871,-0.2602 0.2608,-0.3757 0.4922,-0.4332c0.2893,-0.0286 0.6364,0.0297 1.099,0.2038zm-0.3194,0.9252c0.347,0.1451 0.6072,0.2032 0.7518,0.2324c0.1446,0.0001 0.2315,-0.0287 0.2605,-0.1154c0.029,-0.0578 0.0001,-0.1157 -0.0287,-0.1736c-0.0289,-0.0579 -0.1156,-0.1159 -0.2312,-0.1739c-0.1156,-0.0579 -0.318,-0.145 -0.5493,-0.232c-0.347,-0.1162 -0.6072,-0.2033 -0.7518,-0.2034c-0.1447,-0.0002 -0.2315,0.0286 -0.2605,0.1153c-0.029,0.0868 -0.0002,0.1736 0.1154,0.2605c0.0867,0.058 0.3179,0.174 0.6938,0.2901z"/>
  <path id="svg_308" fill="white" d="m46.0699,53.2507l-0.2609,0.4335l-1.3874,-0.8116c-0.1445,-0.087 -0.3179,-0.2029 -0.5203,-0.3188c0,0 0.0289,0.0579 0.0577,0.1447c0.0288,0.0868 0.0576,0.2314 0.1441,0.463l-0.4051,0.0862l-0.2302,-0.9548l0.2319,-0.4047l2.3702,1.3625z"/>
  <path id="svg_309" fill="white" d="m45.2629,51.2249c0.116,-0.1734 0.2607,-0.2889 0.4343,-0.3176c0.1736,-0.0287 0.376,0.0005 0.6073,0.1454c0.2601,0.1449 0.4335,0.3187 0.491,0.5502c0.0576,0.2025 0.0284,0.4339 -0.0876,0.6652c-0.1159,0.2023 -0.2607,0.3467 -0.4055,0.4333l-0.4046,-0.2319c0.0579,-0.0288 0.1447,-0.0866 0.2316,-0.1443c0.0868,-0.0578 0.1448,-0.1445 0.1738,-0.2023c0.1449,-0.2312 0.0583,-0.4338 -0.2018,-0.5787c-0.2602,-0.145 -0.4338,-0.1163 -0.5787,0.1149c-0.0579,0.0868 -0.087,0.2024 -0.1161,0.3181l-0.1736,0.0866l-1.1561,-0.7535l0.5797,-1.0117l0.4047,0.2319l-0.3768,0.6359l0.4913,0.3188c0.0002,-0.1157 0.0292,-0.1736 0.0871,-0.2603z"/>
  <path id="svg_310" fill="white" d="m46.7985,49.2599c0.4336,0.2608 0.7226,0.4926 0.838,0.6952c0.1444,0.2027 0.1441,0.4341 -0.0008,0.6653c-0.1449,0.2313 -0.3186,0.3467 -0.5789,0.3175c-0.2603,-0.0003 -0.5784,-0.1453 -1.012,-0.3773c-0.4335,-0.2609 -0.6936,-0.4926 -0.8379,-0.6952c-0.1444,-0.2027 -0.1441,-0.4341 0.0008,-0.6653c0.1449,-0.2313 0.3186,-0.3468 0.5789,-0.3175c0.2314,0.0003 0.5494,0.1164 1.0119,0.3773zm-0.5217,0.8671c0.3179,0.2029 0.5492,0.3189 0.6938,0.348c0.1446,0.0291 0.2313,0.0292 0.2604,-0.0576c0.029,-0.0578 0.0291,-0.1156 0.0002,-0.1735c-0.0289,-0.0579 -0.1156,-0.1159 -0.2022,-0.2027c-0.1156,-0.087 -0.2891,-0.174 -0.5203,-0.3189c-0.3179,-0.2028 -0.5492,-0.2899 -0.6938,-0.3479c-0.1446,-0.0291 -0.2314,-0.0292 -0.2604,0.0575c-0.058,0.0867 -0.0291,0.1735 0.0865,0.2604c0.1156,0.087 0.3179,0.2318 0.6358,0.4347z"/>
  <path id="svg_311" fill="white" d="m52.156,44.1758l-0.3187,0.3757l-1.2425,-1.0429c-0.1445,-0.1159 -0.2889,-0.2607 -0.4334,-0.4055c0,0.0289 0,0.0579 0.0288,0.1447c-0.0001,0.0867 0.0286,0.2314 0.0573,0.4629l-0.434,0.0283l-0.0566,-0.9835l0.2897,-0.3468l2.1094,1.7671z"/>
  <path id="svg_312" fill="white" d="m53.0836,42.181l-0.1738,0.2022l0.4335,0.3766l-0.3187,0.3757l-0.4334,-0.3766l-0.5794,0.6935l-0.3178,-0.2607l-0.8078,-1.7655l0.3476,-0.4045l1.3292,1.1297l0.1738,-0.2023l0.3468,0.2319zm-0.8103,0.3172l-0.4334,-0.3766l-0.2023,-0.1738l-0.1733,-0.1738c0.0866,0.1158 0.1443,0.2316 0.2021,0.3474l0.3173,0.6946l0.2896,-0.3178z"/>
  <path id="svg_313" fill="white" d="m53.5778,40.3882c0.3757,0.3186 0.6067,0.6082 0.6932,0.8397c0.0865,0.2315 0.0573,0.4629 -0.1165,0.6651c-0.1738,0.2023 -0.3764,0.2888 -0.6078,0.2307c-0.2313,-0.0581 -0.5493,-0.2321 -0.9249,-0.5507c-0.3756,-0.3187 -0.6067,-0.6082 -0.6932,-0.8397c-0.0865,-0.2315 -0.0573,-0.4629 0.1165,-0.6363c0.1738,-0.2022 0.3764,-0.2888 0.6077,-0.2306c0.2025,0.0002 0.5204,0.2031 0.925,0.5218zm-0.6373,0.7513c0.289,0.2607 0.4913,0.4055 0.6358,0.4636c0.1156,0.058 0.2024,0.0581 0.2604,-0.0286c0.029,-0.0579 0.058,-0.1157 0.0291,-0.1736c-0.0288,-0.0578 -0.0866,-0.1447 -0.1733,-0.2316c-0.0866,-0.0869 -0.2311,-0.2317 -0.4333,-0.4055c-0.289,-0.2317 -0.4913,-0.4055 -0.6358,-0.4636c-0.1157,-0.058 -0.2314,-0.0581 -0.2893,-0.0003c-0.0579,0.0578 -0.0581,0.1735 0.0286,0.2893c0.0866,0.1447 0.2888,0.3185 0.5778,0.5503z"/>
  <path id="svg_314" fill="white" d="m59.7447,36.3168l-0.3765,0.3177l-1.0398,-1.2451c-0.1155,-0.1448 -0.231,-0.2895 -0.3754,-0.4922c0,0.0289 -0.0001,0.0579 -0.0002,0.1446c-0.0001,0.0868 -0.0003,0.2314 -0.0295,0.4628l-0.4049,-0.0583l0.117,-0.9834l0.3474,-0.2888l1.7619,2.1427z"/>
  <path id="svg_315" fill="white" d="m59.8928,33.4533c0.1155,0.1447 0.1732,0.2605 0.1731,0.4051c-0.0002,0.1447 -0.0293,0.2893 -0.1163,0.4049c0.1448,-0.0866 0.2894,-0.1154 0.4341,-0.1152c0.1446,0.0291 0.2602,0.116 0.3757,0.2319c0.1733,0.2027 0.2309,0.4052 0.2018,0.6077c-0.0292,0.2024 -0.1452,0.4047 -0.3479,0.578c-0.1737,0.1445 -0.3763,0.2599 -0.5499,0.2886l-0.2888,-0.3474c0.0868,-0.0289 0.2025,-0.0287 0.2893,-0.0865c0.0868,-0.0288 0.1737,-0.0865 0.2316,-0.1443c0.1158,-0.0866 0.1738,-0.2023 0.1739,-0.2891c0.0001,-0.0867 -0.0287,-0.2025 -0.1153,-0.3183c-0.1733,-0.2027 -0.4047,-0.203 -0.6364,-0.0008l-0.1158,0.0867l-0.231,-0.2896l0.1158,-0.0866c0.1158,-0.0866 0.1738,-0.2023 0.2028,-0.289c0.0291,-0.1157 -0.0286,-0.2025 -0.1153,-0.3183c-0.0577,-0.0869 -0.1445,-0.1159 -0.2023,-0.1449c-0.0868,-0.0001 -0.1446,0.0287 -0.2315,0.0865c-0.1158,0.0866 -0.1738,0.2312 -0.203,0.4047l-0.4048,-0.1162c0.0293,-0.2603 0.1452,-0.4916 0.3479,-0.6649c0.1738,-0.1444 0.3474,-0.231 0.521,-0.2018c0.2024,0.0581 0.3469,0.145 0.4913,0.3188z"/>
  <path id="svg_316" fill="white" d="m61.7734,32.8192c0.3177,0.3765 0.4909,0.6949 0.5484,0.9263c0.0576,0.2315 -0.0295,0.4628 -0.2321,0.6361c-0.2027,0.1733 -0.4053,0.202 -0.6366,0.1149c-0.2313,-0.087 -0.4913,-0.3187 -0.809,-0.7241c-0.3177,-0.3764 -0.4909,-0.6948 -0.5484,-0.9552c-0.0575,-0.2604 0.0295,-0.4628 0.2322,-0.6361c0.2027,-0.1733 0.4052,-0.202 0.6365,-0.1149c0.2312,0.1449 0.4913,0.3766 0.809,0.753zm-0.7529,0.6355c0.26,0.2896 0.4333,0.4923 0.549,0.5503c0.1156,0.0869 0.2023,0.087 0.2603,0.0292c0.0578,-0.0289 0.0579,-0.0867 0.058,-0.1446c0.0001,-0.0578 -0.0577,-0.1447 -0.1154,-0.2604c-0.0866,-0.1158 -0.2022,-0.2606 -0.3755,-0.4633c-0.231,-0.2896 -0.4333,-0.4634 -0.5489,-0.5503c-0.1156,-0.0869 -0.2023,-0.087 -0.2892,-0.0293c-0.0579,0.0578 -0.0869,0.1446 -0.0004,0.2893c0.0867,0.0869 0.2311,0.2895 0.4621,0.5791z"/>
  <path id="svg_317" fill="white" d="m68.5749,29.9061l-0.4342,0.2598l-0.8082,-1.3894c-0.0866,-0.1448 -0.1732,-0.3184 -0.2887,-0.5211c0,0.029 0,0.0579 -0.0291,0.1446c-0.029,0.0868 -0.0581,0.2314 -0.1162,0.4627l-0.4048,-0.1162l0.2904,-0.9542l0.4052,-0.2309l1.3856,2.3447z"/>
  <path id="svg_318" fill="white" d="m70.3117,28.8958l-1.2737,0.7216l-0.202,-0.3184l0.0878,-0.8388c0.0292,-0.2313 0.0294,-0.4049 0.0295,-0.4917c0.0001,-0.1157 -0.0287,-0.2025 -0.0286,-0.2893c-0.0288,-0.0868 -0.0576,-0.1736 -0.0865,-0.2315c-0.0577,-0.0868 -0.1155,-0.1447 -0.1733,-0.1737c-0.0578,-0.029 -0.1446,-0.0002 -0.2025,0.0286c-0.0579,0.0289 -0.1158,0.0867 -0.1448,0.1445c-0.029,0.0578 -0.0581,0.1445 -0.0871,0.2602l-0.4048,-0.1162c0.0291,-0.2024 0.0872,-0.347 0.1741,-0.4337c0.0579,-0.1156 0.1738,-0.2022 0.2606,-0.26c0.2026,-0.1154 0.3762,-0.1441 0.5497,-0.0861c0.1735,0.0581 0.318,0.174 0.4334,0.3766c0.0578,0.0868 0.0866,0.1737 0.1154,0.2605c0.0288,0.0868 0.0576,0.2025 0.0575,0.2893c-0.0001,0.1157 -0.0003,0.2314 -0.0004,0.3471c-0.0002,0.1157 -0.0584,0.4049 -0.1168,0.8676l0.7815,-0.4329l0.231,0.3763z"/>
  <path id="svg_319" fill="white" d="m71.1819,26.8143c0.2598,0.4342 0.3751,0.7814 0.3748,1.0128c-0.0003,0.2604 -0.1163,0.4338 -0.3189,0.5781c-0.2316,0.1444 -0.463,0.1441 -0.6653,-0.0008c-0.2023,-0.1449 -0.4334,-0.4055 -0.6932,-0.8397c-0.2598,-0.4342 -0.3751,-0.7814 -0.3748,-1.0128c0.0003,-0.2604 0.1163,-0.4338 0.3189,-0.5782c0.2316,-0.1443 0.4341,-0.1441 0.6653,0.0009c0.2313,0.1159 0.4623,0.4055 0.6932,0.8397zm-0.8395,0.4907c0.2021,0.3184 0.3465,0.55 0.4331,0.6369c0.0867,0.0868 0.1735,0.1159 0.2603,0.0871c0.0579,-0.0289 0.0868,-0.0867 0.0869,-0.1446c0.0001,-0.0578 -0.0287,-0.1736 -0.0864,-0.2893c-0.0577,-0.1158 -0.1443,-0.2895 -0.2886,-0.521c-0.2021,-0.3185 -0.3175,-0.55 -0.4331,-0.6369c-0.0866,-0.1159 -0.1734,-0.116 -0.2602,-0.0871c-0.0869,0.0577 -0.087,0.1445 -0.0582,0.2602c0.0288,0.1158 0.1442,0.3473 0.3462,0.6947z"/>
  <path id="svg_320" fill="white" d="m78.3864,25.0875l-0.463,0.173l-0.5477,-1.5048c-0.0576,-0.1736 -0.1153,-0.3472 -0.1729,-0.5787c0,0.0289 -0.029,0.0578 -0.058,0.1445c-0.029,0.0868 -0.0871,0.2313 -0.1741,0.4337l-0.3758,-0.2029l0.4639,-0.8672l0.4341,-0.1441l0.8935,2.5465z"/>
  <path id="svg_321" fill="white" d="m80.0359,24.4821l-0.4631,0.173l-0.5477,-1.5048c-0.0576,-0.1736 -0.1153,-0.3473 -0.1728,-0.5787c-0.0001,0.0289 -0.029,0.0578 -0.0581,0.1445c-0.029,0.0868 -0.087,0.2313 -0.1741,0.4337l-0.3757,-0.203l0.4638,-0.8672l0.4341,-0.144l0.8936,2.5465z"/>
  <path id="svg_322" fill="white" d="m81.5136,22.5169c0.173,0.4631 0.2304,0.8103 0.2012,1.0705c-0.0293,0.2603 -0.1741,0.4048 -0.4345,0.5202c-0.2605,0.0864 -0.4629,0.0573 -0.6363,-0.1165c-0.1733,-0.1738 -0.3465,-0.4922 -0.5194,-0.9552c-0.173,-0.463 -0.2305,-0.8102 -0.2012,-1.0705c0.0292,-0.2603 0.1741,-0.4337 0.4345,-0.5201c0.2605,-0.0865 0.4629,-0.0573 0.6362,0.1165c0.1734,0.1448 0.3466,0.4632 0.5195,0.9551zm-0.926,0.3171c0.1442,0.3473 0.2307,0.6077 0.3173,0.7235c0.0866,0.1158 0.1445,0.1448 0.2313,0.116c0.0579,-0.0288 0.0868,-0.0577 0.1158,-0.1445c0.0001,-0.0578 0.0003,-0.1735 -0.0285,-0.2893c-0.0288,-0.1157 -0.0864,-0.3183 -0.1729,-0.5787c-0.1152,-0.3472 -0.2307,-0.5788 -0.3173,-0.6946c-0.0866,-0.1158 -0.1733,-0.1738 -0.2602,-0.116c-0.0868,0.0288 -0.1158,0.1155 -0.116,0.2602c0.0288,0.1157 0.0863,0.3761 0.2305,0.7234z"/>
  <path id="svg_323" fill="white" d="m88.7461,22.0915l-0.4918,0.0862l-0.2873,-1.5913c-0.0287,-0.1736 -0.0574,-0.3761 -0.086,-0.6076c0,0 -0.029,0.0579 -0.087,0.1156c-0.0579,0.0578 -0.1448,0.2023 -0.2608,0.4047l-0.3468,-0.2608l0.6084,-0.7802l0.434,-0.0863l0.5173,2.7197z"/>
  <path id="svg_324" fill="white" d="m90.5124,20.3876c0.0861,0.4919 0.0857,0.839 -0.0014,1.0992c-0.087,0.2313 -0.2608,0.3757 -0.5212,0.4333c-0.2604,0.0575 -0.4628,-0.0295 -0.6071,-0.2322c-0.1444,-0.2027 -0.2597,-0.5499 -0.3459,-1.0128c-0.0862,-0.4919 -0.0857,-0.839 0.0014,-1.0992c0.087,-0.2313 0.2608,-0.3757 0.4922,-0.4333c0.2604,-0.0575 0.4628,0.0295 0.6072,0.2322c0.1733,0.1737 0.2886,0.521 0.3748,1.0128zm-0.9548,0.1724c0.0574,0.3761 0.1149,0.6365 0.1726,0.7523c0.0577,0.1158 0.1155,0.1737 0.2312,0.1738c0.0579,0.0001 0.1158,-0.0577 0.1159,-0.1155c0.029,-0.0578 0.0291,-0.1736 0.0293,-0.2893c0.0001,-0.1446 -0.0286,-0.3182 -0.0861,-0.6075c-0.0574,-0.3761 -0.1149,-0.6076 -0.1726,-0.7523c-0.0577,-0.1158 -0.1444,-0.1737 -0.2312,-0.1738c-0.0868,0.0288 -0.1447,0.0866 -0.1449,0.2312c-0.0291,0.1446 -0.0005,0.405 0.0858,0.7811z"/>
  <path id="svg_325" fill="white" d="m92.2775,20.1005c0.0862,0.4919 0.0857,0.839 -0.0013,1.0992c-0.0871,0.2313 -0.2609,0.3757 -0.5213,0.4332c-0.2604,0.0576 -0.4627,-0.0295 -0.6071,-0.2321c-0.1444,-0.2027 -0.2597,-0.5499 -0.3459,-1.0128c-0.0861,-0.4919 -0.0857,-0.839 0.0014,-1.0992c0.0871,-0.2313 0.2608,-0.3757 0.4923,-0.4333c0.2604,-0.0575 0.4627,0.0295 0.6071,0.2322c0.1734,0.1737 0.2887,0.4921 0.3748,1.0128zm-0.9837,0.1724c0.0574,0.3761 0.1149,0.6365 0.1726,0.7522c0.0577,0.1158 0.1155,0.1737 0.2312,0.1739c0.0579,0.0001 0.1158,-0.0577 0.1159,-0.1156c0.029,-0.0578 0.0291,-0.1735 0.0293,-0.2892c0.0001,-0.1446 -0.0286,-0.3182 -0.0861,-0.6075c-0.0574,-0.3762 -0.1149,-0.6076 -0.1726,-0.7523c-0.0577,-0.1158 -0.1444,-0.1738 -0.2312,-0.1739c-0.0868,0.0288 -0.1447,0.0866 -0.1449,0.2313c-0.0002,0.1446 0.0284,0.405 0.0858,0.7811z"/>
  <path id="svg_326" fill="white" d="m44.5285,83.3036l-5.467,-0.0067l-0.0005,0.4049l5.467,0.0068l0.0005,-0.405z"/>
  <path id="svg_327" fill="white" d="m40.0581,72.5581l-0.0708,0.3987l5.3827,0.9558l0.0708,-0.3988l-5.3827,-0.9557z"/>
  <path id="svg_328" fill="white" d="m42.8963,62.166l-0.139,0.3803l5.135,1.8761l0.139,-0.3804l-5.135,-1.876z"/>
  <path id="svg_329" fill="white" d="m47.4817,52.4314l-0.2029,0.3504l4.731,2.7393l0.2029,-0.3504l-4.731,-2.7393z"/>
  <path id="svg_330" fill="white" d="m53.7143,43.6044l-0.2607,0.3099l4.1839,3.5193l0.2607,-0.3099l-4.1839,-3.5193z"/>
  <path id="svg_331" fill="white" d="m61.3457,36.0284l-0.3105,0.2599l3.5089,4.1921l0.3106,-0.26l-3.509,-4.192z"/>
  <path id="svg_332" fill="white" d="m70.2147,29.8883l-0.3509,0.202l2.7276,4.7378l0.351,-0.2021l-2.7277,-4.7377z"/>
  <path id="svg_333" fill="white" d="m80.0169,25.3892l-0.3807,0.138l1.8634,5.1396l0.3807,-0.138l-1.8634,-5.1396z"/>
  <path id="svg_334" fill="white" d="m90.4326,22.6247l-0.3989,0.0698l0.9424,5.3851l0.3989,-0.0699l-0.9424,-5.385z"/>
  <path id="svg_335" fill="white" d="m101.185,21.7315l-0.405,-0.0005l-0.007,5.4669l0.405,0.0005l0.007,-5.4669z"/>
  <path id="svg_336" fill="white" d="m101.527,82.3501l-1.003,-0.0012l-0.006,4.8319l1.003,0.0012l0.006,-4.8319z"/>
  <path id="svg_337" fill="white" d="m111.513,22.663l-0.957,5.3827l0.399,0.0708l0.957,-5.3827l-0.399,-0.0708z"/>
  <path id="svg_338" fill="white" d="m121.933,25.4284l-1.876,5.1356l0.381,0.1389l1.875,-5.1355l-0.38,-0.139z"/>
  <path id="svg_339" fill="white" d="m131.713,29.9681l-2.739,4.7311l0.351,0.2029l2.739,-4.731l-0.351,-0.203z"/>
  <path id="svg_340" fill="white" d="m140.556,36.118l-3.517,4.185l0.31,0.2605l3.517,-4.1849l-0.31,-0.2606z"/>
  <path id="svg_341" fill="white" d="m148.185,43.7546l-4.193,3.5074l0.26,0.3106l4.193,-3.5073l-0.26,-0.3107z"/>
  <path id="svg_342" fill="white" d="m154.384,52.5414l-4.738,2.7276l0.203,0.351l4.737,-2.7276l-0.202,-0.351z"/>
  <path id="svg_343" fill="white" d="m158.947,62.3066l-5.139,1.8628l0.138,0.3807l5.139,-1.8628l-0.138,-0.3807z"/>
  <path id="svg_344" fill="white" d="m161.762,72.7147l-5.385,0.9435l0.07,0.3989l5.385,-0.9435l-0.07,-0.3989z"/>
  <path id="svg_345" fill="white" d="m162.721,83.4496l-5.467,-0.0068l0,0.405l5.467,0.0067l0,-0.4049z"/>
 </g>
</svg>